0
SECTION
2
HEADER
9
$INSUNITS
70
4
9
$ACADVER
1
AC1014
9
$HANDSEED
5
FFFF
0
ENDSEC
0
SECTION
2
TABLES
0
TABLE
2
VPORT
5
8
100
AcDbSymbolTable
0
ENDTAB
0
TABLE
2
LTYPE
5
5
100
AcDbSymbolTable
70
2
0
LTYPE
5
14
100
AcDbSymbolTableRecord
100
AcDbLinetypeTableRecord
2
BYBLOCK
70
0
0
LTYPE
5
15
100
AcDbSymbolTableRecord
100
AcDbLinetypeTableRecord
2
BYLAYER
70
0
0
ENDTAB
0
TABLE
2
LAYER
5
2
100
AcDbSymbolTable
70
3
0
LAYER
5
50
100
AcDbSymbolTableRecord
100
AcDbLayerTableRecord
2
0
70
0
6
CONTINUOUS
0
LAYER
5
51
100
AcDbSymbolTableRecord
100
AcDbLayerTableRecord
2
CUTOUTS
70
0
62
1
6
CONTINUOUS
0
LAYER
5
52
100
AcDbSymbolTableRecord
100
AcDbLayerTableRecord
2
PERIMETER
70
0
62
5
6
CONTINUOUS
0
ENDTAB
0
TABLE
2
STYLE
5
3
100
AcDbSymbolTable
70
1
0
STYLE
5
11
100
AcDbSymbolTableRecord
100
AcDbTextStyleTableRecord
2
STANDARD
70
0
0
ENDTAB
0
TABLE
2
VIEW
5
6
100
AcDbSymbolTable
0
ENDTAB
0
TABLE
2
UCS
5
7
100
AcDbSymbolTable
0
ENDTAB
0
TABLE
2
APPID
5
9
100
AcDbSymbolTable
70
1
0
APPID
5
12
100
AcDbSymbolTableRecord
100
AcDbRegAppTableRecord
2
ACAD
70
0
0
ENDTAB
0
TABLE
2
DIMSTYLE
5
A
100
AcDbSymbolTable
0
ENDTAB
0
TABLE
2
BLOCK_RECORD
5
1
100
AcDbSymbolTable
70
2
0
BLOCK_RECORD
5
1F
100
AcDbSymbolTableRecord
100
AcDbBlockTableRecord
2
*MODEL_SPACE
0
BLOCK_RECORD
5
1B
100
AcDbSymbolTableRecord
100
AcDbBlockTableRecord
2
*PAPER_SPACE
0
ENDTAB
0
ENDSEC
0
SECTION
2
BLOCKS
0
BLOCK
5
20
100
AcDbEntity
100
AcDbBlockBegin
2
*MODEL_SPACE
0
ENDBLK
5
21
100
AcDbEntity
100
AcDbBlockEnd
0
BLOCK
5
1C
100
AcDbEntity
100
AcDbBlockBegin
2
*PAPER_SPACE
0
ENDBLK
5
1D
100
AcDbEntity
100
AcDbBlockEnd
0
ENDSEC
0
SECTION
2
ENTITIES
0
CIRCLE
5
100
100
AcDbEntity
8
CUTOUTS
100
AcDbCircle
10
7.0624500000000268
20
-0.94974999999998033
30
0
40
1.0000000000000142
210
0
220
0
230
1
0
CIRCLE
5
101
100
AcDbEntity
8
CUTOUTS
100
AcDbCircle
10
-92.137550000000005
20
-16.449749999999987
30
5.5511151231257827e-16
40
0.99999999999999645
210
0
220
0
230
1
0
CIRCLE
5
102
100
AcDbEntity
8
CUTOUTS
100
AcDbCircle
10
62.86245000000001
20
-22.649749999999962
30
1.1102230246251565e-15
40
0.99999999999997868
210
0
220
0
230
1
0
CIRCLE
5
103
100
AcDbEntity
8
CUTOUTS
100
AcDbCircle
10
-98.337550000000022
20
14.550250000000027
30
-1.1102230246251565e-15
40
1.0000000000000142
210
0
220
0
230
1
0
CIRCLE
5
104
100
AcDbEntity
8
CUTOUTS
100
AcDbCircle
10
90.762450000000001
20
20.750250000000054
30
-1.6653345369377348e-15
40
0.99999999999997868
210
0
220
0
230
1
0
ARC
5
105
100
AcDbEntity
8
CUTOUTS
100
AcDbCircle
10
-118.41875000000005
20
34.82524999999999
30
0
40
0.49999999999999822
210
-4.3790577010150533e-47
220
-8.044198495244478e-63
230
1
100
AcDbArc
50
90
51
180
0
LINE
5
106
100
AcDbEntity
8
CUTOUTS
100
AcDbLine
10
-118.91875000000005
20
21.82525
30
0
11
-118.91875000000005
21
34.825249999999997
31
0
0
ARC
5
107
100
AcDbEntity
8
CUTOUTS
100
AcDbCircle
10
-118.41875000000005
20
21.82525
30
0
40
0.50000000000000711
210
-4.3790577010149756e-47
220
-7.1536014699697014e-94
230
1
100
AcDbArc
50
180
51
270
0
LINE
5
108
100
AcDbEntity
8
CUTOUTS
100
AcDbLine
10
-105.41875000000005
20
21.325249999999993
30
0
11
-118.41875000000005
21
21.325249999999993
31
0
0
ARC
5
109
100
AcDbEntity
8
CUTOUTS
100
AcDbCircle
10
-105.41875000000005
20
21.82525
30
0
40
0.49999999999999822
210
-4.3790577010150533e-47
220
-8.044198495244478e-63
230
1
100
AcDbArc
50
270
51
360
0
LINE
5
10A
100
AcDbEntity
8
CUTOUTS
100
AcDbLine
10
-104.91875000000005
20
34.82524999999999
30
0
11
-104.91875000000005
21
21.82524999999999
31
0
0
ARC
5
10B
100
AcDbEntity
8
CUTOUTS
100
AcDbCircle
10
-105.41875000000005
20
34.82524999999999
30
0
40
0.50000000000000711
210
-4.3790577010150533e-47
220
-7.1536014699697014e-94
230
1
100
AcDbArc
50
0
51
90
0
LINE
5
10C
100
AcDbEntity
8
CUTOUTS
100
AcDbLine
10
-118.41875000000005
20
35.325249999999983
30
-5.5511151231257827e-16
11
-105.41875000000005
21
35.32524999999999
31
-5.5511151231257827e-16
0
ARC
5
10D
100
AcDbEntity
8
CUTOUTS
100
AcDbCircle
10
-99.368750000000034
20
34.82524999999999
30
0
40
0.49999999999999822
210
-4.3790577010150533e-47
220
-8.044198495244478e-63
230
1
100
AcDbArc
50
90
51
180
0
LINE
5
10E
100
AcDbEntity
8
CUTOUTS
100
AcDbLine
10
-99.868750000000006
20
21.82525
30
0
11
-99.868750000000006
21
34.825249999999997
31
0
0
ARC
5
10F
100
AcDbEntity
8
CUTOUTS
100
AcDbCircle
10
-99.368750000000034
20
21.82525
30
0
40
0.50000000000000711
210
-4.3790577010149756e-47
220
-7.1536014699697014e-94
230
1
100
AcDbArc
50
180
51
270
0
LINE
5
110
100
AcDbEntity
8
CUTOUTS
100
AcDbLine
10
-86.368750000000034
20
21.325249999999993
30
0
11
-99.368750000000034
21
21.325249999999993
31
0
0
ARC
5
111
100
AcDbEntity
8
CUTOUTS
100
AcDbCircle
10
-86.368750000000034
20
21.82525
30
0
40
0.49999999999999822
210
-4.3790577010150533e-47
220
-8.044198495244478e-63
230
1
100
AcDbArc
50
270
51
360
0
LINE
5
112
100
AcDbEntity
8
CUTOUTS
100
AcDbLine
10
-85.868750000000034
20
34.82524999999999
30
0
11
-85.868750000000034
21
21.82524999999999
31
0
0
ARC
5
113
100
AcDbEntity
8
CUTOUTS
100
AcDbCircle
10
-86.368750000000034
20
34.82524999999999
30
0
40
0.49999999999998934
210
-4.3790577010150533e-47
220
-7.1536014699697014e-94
230
1
100
AcDbArc
50
0
51
90
0
LINE
5
114
100
AcDbEntity
8
CUTOUTS
100
AcDbLine
10
-99.368750000000034
20
35.325249999999983
30
-5.5511151231257827e-16
11
-86.368750000000034
21
35.325249999999969
31
-5.5511151231257827e-16
0
ARC
5
115
100
AcDbEntity
8
CUTOUTS
100
AcDbCircle
10
-67.318750000000009
20
34.825249999999961
30
0
40
0.49999999999999822
210
-4.3790577010150533e-47
220
-7.1536014699697014e-94
230
1
100
AcDbArc
50
0
51
89.99999999999838
0
LINE
5
116
100
AcDbEntity
8
CUTOUTS
100
AcDbLine
10
-80.318749999999994
20
35.325249999999969
30
-5.5511151231257827e-16
11
-67.318749999999994
21
35.325249999999969
31
-5.5511151231257827e-16
0
ARC
5
117
100
AcDbEntity
8
CUTOUTS
100
AcDbCircle
10
-80.318749999999994
20
34.825249999999961
30
0
40
0.49999999999999822
210
-4.3790577010150533e-47
220
-8.044198495244478e-63
230
1
100
AcDbArc
50
90
51
180
0
LINE
5
118
100
AcDbEntity
8
CUTOUTS
100
AcDbLine
10
-80.818749999999994
20
21.825249999999983
30
0
11
-80.818749999999994
21
34.82524999999999
31
0
0
ARC
5
119
100
AcDbEntity
8
CUTOUTS
100
AcDbCircle
10
-80.318749999999994
20
21.825249999999976
30
0
40
0.50000000000000711
210
-4.3790577010149756e-47
220
-7.1536014699697014e-94
230
1
100
AcDbArc
50
180
51
270
0
LINE
5
11A
100
AcDbEntity
8
CUTOUTS
100
AcDbLine
10
-67.318750000000009
20
21.325249999999993
30
0
11
-80.318749999999994
21
21.325249999999993
31
0
0
ARC
5
11B
100
AcDbEntity
8
CUTOUTS
100
AcDbCircle
10
-67.318750000000009
20
21.825249999999976
30
0
40
0.49999999999999822
210
-4.3790577010150533e-47
220
-8.044198495244478e-63
230
1
100
AcDbArc
50
270
51
360
0
LINE
5
11C
100
AcDbEntity
8
CUTOUTS
100
AcDbLine
10
-66.818750000000023
20
34.825249999999961
30
0
11
-66.818750000000023
21
21.825249999999965
31
0
0
ARC
5
11D
100
AcDbEntity
8
CUTOUTS
100
AcDbCircle
10
-61.26875000000004
20
34.825249999999997
30
0
40
0.49999999999999822
210
-4.3790577010150533e-47
220
-8.044198495244478e-63
230
1
100
AcDbArc
50
90
51
180
0
LINE
5
11E
100
AcDbEntity
8
CUTOUTS
100
AcDbLine
10
-61.76875000000004
20
21.82524999999999
30
0
11
-61.768750000000026
21
34.82524999999999
31
0
0
ARC
5
11F
100
AcDbEntity
8
CUTOUTS
100
AcDbCircle
10
-61.26875000000004
20
21.82524999999999
30
0
40
0.50000000000000711
210
-4.3790577010150533e-47
220
-7.1536014699697014e-94
230
1
100
AcDbArc
50
180
51
270
0
LINE
5
120
100
AcDbEntity
8
CUTOUTS
100
AcDbLine
10
-48.268750000000026
20
21.325249999999993
30
0
11
-61.26875000000004
21
21.325249999999983
31
0
0
ARC
5
121
100
AcDbEntity
8
CUTOUTS
100
AcDbCircle
10
-48.268750000000026
20
21.82524999999999
30
0
40
0.49999999999999822
210
-4.3790577010150533e-47
220
-8.044198495244478e-63
230
1
100
AcDbArc
50
-90
51
0
0
LINE
5
122
100
AcDbEntity
8
CUTOUTS
100
AcDbLine
10
-47.768750000000026
20
34.825249999999997
30
0
11
-47.76875000000004
21
21.82525
31
0
0
ARC
5
123
100
AcDbEntity
8
CUTOUTS
100
AcDbCircle
10
-48.268750000000026
20
34.825249999999997
30
0
40
0.50000000000000711
210
-4.3790577010150533e-47
220
-7.1536014699697014e-94
230
1
100
AcDbArc
50
0
51
90
0
LINE
5
124
100
AcDbEntity
8
CUTOUTS
100
AcDbLine
10
-61.26875000000004
20
35.32524999999999
30
-5.5511151231257827e-16
11
-48.268750000000026
21
35.325249999999997
31
-5.5511151231257827e-16
0
LINE
5
125
100
AcDbEntity
8
CUTOUTS
100
AcDbLine
10
-28.718750000000028
20
34.825249999999997
30
0
11
-28.718750000000064
21
21.82525
31
0
0
ARC
5
126
100
AcDbEntity
8
CUTOUTS
100
AcDbCircle
10
-29.218750000000036
20
21.82524999999999
30
0
40
0.49999999999998046
210
-4.3790577010150533e-47
220
-8.044198495244478e-63
230
1
100
AcDbArc
50
-90
51
0
0
LINE
5
127
100
AcDbEntity
8
CUTOUTS
100
AcDbLine
10
-29.218750000000036
20
21.325250000000011
30
0
11
-42.218750000000028
21
21.325249999999983
31
0
0
ARC
5
128
100
AcDbEntity
8
CUTOUTS
100
AcDbCircle
10
-42.218750000000028
20
21.82524999999999
30
0
40
0.50000000000000711
210
-4.3790577010150533e-47
220
-7.1536014699697014e-94
230
1
100
AcDbArc
50
180
51
270
0
LINE
5
129
100
AcDbEntity
8
CUTOUTS
100
AcDbLine
10
-42.718750000000028
20
21.82524999999999
30
0
11
-42.718750000000014
21
34.82524999999999
31
0
0
ARC
5
12A
100
AcDbEntity
8
CUTOUTS
100
AcDbCircle
10
-42.218750000000028
20
34.825249999999997
30
0
40
0.49999999999999822
210
-4.3790577010150533e-47
220
-8.044198495244478e-63
230
1
100
AcDbArc
50
90
51
180
0
LINE
5
12B
100
AcDbEntity
8
CUTOUTS
100
AcDbLine
10
-42.218750000000028
20
35.32524999999999
30
-5.5511151231257827e-16
11
-29.218750000000036
21
35.325249999999997
31
-5.5511151231257827e-16
0
ARC
5
12C
100
AcDbEntity
8
CUTOUTS
100
AcDbCircle
10
-29.218750000000036
20
34.825249999999997
30
0
40
0.50000000000000711
210
-4.3790577010150533e-47
220
-7.1536014699697014e-94
230
1
100
AcDbArc
50
0
51
90
0
LINE
5
12D
100
AcDbEntity
8
CUTOUTS
100
AcDbLine
10
-9.6687499999999993
20
34.825249999999997
30
0
11
-9.6687500000000171
21
21.82525
31
0
0
ARC
5
12E
100
AcDbEntity
8
CUTOUTS
100
AcDbCircle
10
-10.168750000000006
20
21.82524999999999
30
0
40
0.49999999999999822
210
-4.3790577010150533e-47
220
-8.044198495244478e-63
230
1
100
AcDbArc
50
-90
51
0
0
LINE
5
12F
100
AcDbEntity
8
CUTOUTS
100
AcDbLine
10
-10.168750000000006
20
21.325249999999993
30
0
11
-23.168749999999996
21
21.325249999999983
31
0
0
ARC
5
130
100
AcDbEntity
8
CUTOUTS
100
AcDbCircle
10
-23.168749999999996
20
21.82524999999999
30
0
40
0.50000000000000711
210
-4.3790577010150533e-47
220
-7.1536014699697014e-94
230
1
100
AcDbArc
50
180
51
270
0
LINE
5
131
100
AcDbEntity
8
CUTOUTS
100
AcDbLine
10
-23.668750000000003
20
21.82524999999999
30
0
11
-23.668750000000003
21
34.82524999999999
31
0
0
ARC
5
132
100
AcDbEntity
8
CUTOUTS
100
AcDbCircle
10
-23.168749999999996
20
34.825249999999997
30
0
40
0.49999999999999822
210
-4.3790577010150533e-47
220
-8.044198495244478e-63
230
1
100
AcDbArc
50
90
51
180
0
LINE
5
133
100
AcDbEntity
8
CUTOUTS
100
AcDbLine
10
-23.168749999999996
20
35.32524999999999
30
-5.5511151231257827e-16
11
-10.168750000000006
21
35.325249999999997
31
-5.5511151231257827e-16
0
ARC
5
134
100
AcDbEntity
8
CUTOUTS
100
AcDbCircle
10
-10.168750000000006
20
34.825249999999997
30
0
40
0.50000000000000711
210
-4.3790577010150533e-47
220
-7.1536014699697014e-94
230
1
100
AcDbArc
50
0
51
90
0
LINE
5
135
100
AcDbEntity
8
CUTOUTS
100
AcDbLine
10
-102.53750000000004
20
15.775249999999996
30
-5.5511151231257827e-16
11
-102.53750000000004
21
2.7752499999999891
31
-5.5511151231257827e-16
0
ARC
5
136
100
AcDbEntity
8
CUTOUTS
100
AcDbCircle
10
-103.03750000000005
20
2.7752500000000069
30
0
40
0.50000000000000711
210
-4.3790577010150533e-47
220
-8.044198495244479e-63
230
1
100
AcDbArc
50
270
51
360
0
LINE
5
137
100
AcDbEntity
8
CUTOUTS
100
AcDbLine
10
-103.03750000000005
20
2.2752499999999998
30
0
11
-116.03750000000005
21
2.2752500000000175
31
0
0
ARC
5
138
100
AcDbEntity
8
CUTOUTS
100
AcDbCircle
10
-116.03750000000005
20
2.7752500000000069
30
0
40
0.50000000000000711
210
-4.3790577010149756e-47
220
-7.1536014699697014e-94
230
1
100
AcDbArc
50
180
51
270
0
LINE
5
139
100
AcDbEntity
8
CUTOUTS
100
AcDbLine
10
-116.53750000000002
20
2.7752500000000069
30
0
11
-116.53750000000002
21
15.775250000000005
31
0
0
ARC
5
13A
100
AcDbEntity
8
CUTOUTS
100
AcDbCircle
10
-116.03750000000005
20
15.775249999999996
30
-5.5511151231257827e-16
40
0.49999999999999822
210
-4.3790577010150533e-47
220
0
230
1
100
AcDbArc
50
90
51
180
0
LINE
5
13B
100
AcDbEntity
8
CUTOUTS
100
AcDbLine
10
-116.03750000000005
20
16.275249999999986
30
-5.5511151231257827e-16
11
-103.03750000000005
21
16.275249999999986
31
-5.5511151231257827e-16
0
ARC
5
13C
100
AcDbEntity
8
CUTOUTS
100
AcDbCircle
10
-103.03750000000005
20
15.775249999999996
30
-5.5511151231257827e-16
40
0.50000000000000711
210
0
220
-7.1536014699697014e-94
230
1
100
AcDbArc
50
0
51
90
0
ARC
5
13D
100
AcDbEntity
8
CUTOUTS
100
AcDbCircle
10
-81.606250000000031
20
15.775249999999996
30
-5.5511151231257827e-16
40
0.50000000000000711
210
0
220
-7.1536014699697014e-94
230
1
100
AcDbArc
50
0
51
90
0
LINE
5
13E
100
AcDbEntity
8
CUTOUTS
100
AcDbLine
10
-94.606250000000045
20
16.275249999999986
30
-5.5511151231257827e-16
11
-81.606250000000031
21
16.275249999999986
31
-5.5511151231257827e-16
0
ARC
5
13F
100
AcDbEntity
8
CUTOUTS
100
AcDbCircle
10
-94.606250000000045
20
15.775249999999996
30
-5.5511151231257827e-16
40
0.49999999999999822
210
-4.3790577010150533e-47
220
0
230
1
100
AcDbArc
50
90
51
180
0
LINE
5
140
100
AcDbEntity
8
CUTOUTS
100
AcDbLine
10
-95.106250000000017
20
2.7752500000000069
30
0
11
-95.106250000000017
21
15.775250000000005
31
0
0
ARC
5
141
100
AcDbEntity
8
CUTOUTS
100
AcDbCircle
10
-94.606250000000045
20
2.7752500000000069
30
0
40
0.50000000000000711
210
-4.3790577010149756e-47
220
-7.1536014699697014e-94
230
1
100
AcDbArc
50
180
51
270
0
LINE
5
142
100
AcDbEntity
8
CUTOUTS
100
AcDbLine
10
-81.606250000000031
20
2.2752499999999998
30
0
11
-94.606250000000045
21
2.2752500000000175
31
0
0
ARC
5
143
100
AcDbEntity
8
CUTOUTS
100
AcDbCircle
10
-81.606250000000031
20
2.7752500000000069
30
0
40
0.50000000000000711
210
-4.3790577010150533e-47
220
-8.044198495244479e-63
230
1
100
AcDbArc
50
270
51
360
0
LINE
5
144
100
AcDbEntity
8
CUTOUTS
100
AcDbLine
10
-81.106250000000017
20
15.775249999999996
30
-5.5511151231257827e-16
11
-81.106250000000017
21
2.7752499999999891
31
-5.5511151231257827e-16
0
ARC
5
145
100
AcDbEntity
8
CUTOUTS
100
AcDbCircle
10
-75.556249999999991
20
15.775249999999996
30
-5.5511151231257827e-16
40
0.49999999999999822
210
-4.3790577010150533e-47
220
0
230
1
100
AcDbArc
50
90
51
180
0
LINE
5
146
100
AcDbEntity
8
CUTOUTS
100
AcDbLine
10
-76.056250000000006
20
2.7752500000000069
30
0
11
-76.056250000000006
21
15.775250000000005
31
0
0
ARC
5
147
100
AcDbEntity
8
CUTOUTS
100
AcDbCircle
10
-75.556249999999991
20
2.7752500000000069
30
0
40
0.49999999999999822
210
-4.3790577010150533e-47
220
-7.1536014699697014e-94
230
1
100
AcDbArc
50
180
51
269.99999999999835
0
LINE
5
148
100
AcDbEntity
8
CUTOUTS
100
AcDbLine
10
-62.55625000000002
20
2.2752499999999998
30
0
11
-75.556250000000034
21
2.2752500000000175
31
0
0
ARC
5
149
100
AcDbEntity
8
CUTOUTS
100
AcDbCircle
10
-62.55625000000002
20
2.7752500000000069
30
0
40
0.50000000000000711
210
-4.3790577010150533e-47
220
-8.044198495244479e-63
230
1
100
AcDbArc
50
-90
51
0
0
LINE
5
14A
100
AcDbEntity
8
CUTOUTS
100
AcDbLine
10
-62.056250000000034
20
15.775250000000014
30
-5.5511151231257827e-16
11
-62.056250000000013
21
2.7752500000000246
31
-5.5511151231257827e-16
0
ARC
5
14B
100
AcDbEntity
8
CUTOUTS
100
AcDbCircle
10
-62.55625000000002
20
15.775250000000014
30
-5.5511151231257827e-16
40
0.49999999999998934
210
0
220
-7.1536014699697014e-94
230
1
100
AcDbArc
50
0
51
89.99999999999838
0
LINE
5
14C
100
AcDbEntity
8
CUTOUTS
100
AcDbLine
10
-75.556249999999991
20
16.275249999999986
30
-5.5511151231257827e-16
11
-62.556249999999984
21
16.275249999999993
31
-5.5511151231257827e-16
0
ARC
5
14D
100
AcDbEntity
8
CUTOUTS
100
AcDbCircle
10
-43.506250000000023
20
2.7752500000000069
30
0
40
0.50000000000000711
210
-4.3790577010150533e-47
220
-8.044198495244479e-63
230
1
100
AcDbArc
50
-90
51
0
0
LINE
5
14E
100
AcDbEntity
8
CUTOUTS
100
AcDbLine
10
-43.006250000000023
20
15.775250000000014
30
-5.5511151231257827e-16
11
-43.006250000000023
21
2.7752500000000246
31
-5.5511151231257827e-16
0
ARC
5
14F
100
AcDbEntity
8
CUTOUTS
100
AcDbCircle
10
-43.506250000000023
20
15.775250000000014
30
-5.5511151231257827e-16
40
0.50000000000000711
210
0
220
-7.1536014699697014e-94
230
1
100
AcDbArc
50
0
51
90
0
LINE
5
150
100
AcDbEntity
8
CUTOUTS
100
AcDbLine
10
-56.506250000000037
20
16.275250000000021
30
-5.5511151231257827e-16
11
-43.506250000000023
21
16.275250000000028
31
-5.5511151231257827e-16
0
ARC
5
151
100
AcDbEntity
8
CUTOUTS
100
AcDbCircle
10
-56.506250000000037
20
15.775250000000014
30
-5.5511151231257827e-16
40
0.49999999999999822
210
-4.3790577010150533e-47
220
0
230
1
100
AcDbArc
50
90
51
180
0
LINE
5
152
100
AcDbEntity
8
CUTOUTS
100
AcDbLine
10
-57.006250000000037
20
2.7752500000000069
30
0
11
-57.006250000000023
21
15.775250000000005
31
0
0
ARC
5
153
100
AcDbEntity
8
CUTOUTS
100
AcDbCircle
10
-56.506250000000037
20
2.7752500000000069
30
0
40
0.50000000000000711
210
-4.3790577010150533e-47
220
-7.1536014699697014e-94
230
1
100
AcDbArc
50
180
51
270
0
LINE
5
154
100
AcDbEntity
8
CUTOUTS
100
AcDbLine
10
-43.506250000000023
20
2.2752499999999998
30
0
11
-56.506250000000037
21
2.2752499999999998
31
0
0
ARC
5
155
100
AcDbEntity
8
CUTOUTS
100
AcDbCircle
10
-37.456250000000026
20
15.775250000000014
30
-5.5511151231257827e-16
40
0.49999999999999822
210
-4.3790577010150533e-47
220
0
230
1
100
AcDbArc
50
90
51
180
0
LINE
5
156
100
AcDbEntity
8
CUTOUTS
100
AcDbLine
10
-37.956250000000026
20
2.7752500000000069
30
0
11
-37.956250000000011
21
15.775250000000005
31
0
0
ARC
5
157
100
AcDbEntity
8
CUTOUTS
100
AcDbCircle
10
-37.456250000000026
20
2.7752500000000069
30
0
40
0.50000000000000711
210
-4.3790577010150533e-47
220
-7.1536014699697014e-94
230
1
100
AcDbArc
50
180
51
270.00000000000244
0
LINE
5
158
100
AcDbEntity
8
CUTOUTS
100
AcDbLine
10
-24.456250000000015
20
2.2752499999999998
30
0
11
-37.456250000000004
21
2.2752499999999998
31
0
0
ARC
5
159
100
AcDbEntity
8
CUTOUTS
100
AcDbCircle
10
-24.456250000000015
20
2.7752500000000069
30
0
40
0.50000000000000711
210
-4.3790577010150533e-47
220
-8.044198495244479e-63
230
1
100
AcDbArc
50
-90
51
0
0
LINE
5
15A
100
AcDbEntity
8
CUTOUTS
100
AcDbLine
10
-23.956250000000008
20
15.775250000000014
30
-5.5511151231257827e-16
11
-23.956250000000008
21
2.7752500000000246
31
-5.5511151231257827e-16
0
ARC
5
15B
100
AcDbEntity
8
CUTOUTS
100
AcDbCircle
10
-24.456250000000015
20
15.775250000000014
30
-5.5511151231257827e-16
40
0.50000000000000711
210
0
220
-7.1536014699697014e-94
230
1
100
AcDbArc
50
0
51
90.000000000002032
0
LINE
5
15C
100
AcDbEntity
8
CUTOUTS
100
AcDbLine
10
-37.456250000000026
20
16.275250000000021
30
-5.5511151231257827e-16
11
-24.456250000000033
21
16.275250000000028
31
-5.5511151231257827e-16
0
ARC
5
15D
100
AcDbEntity
8
CUTOUTS
100
AcDbCircle
10
-5.4062500000000213
20
15.775250000000014
30
-5.5511151231257827e-16
40
0.50000000000000711
210
0
220
-7.1536014699697014e-94
230
1
100
AcDbArc
50
0
51
90
0
LINE
5
15E
100
AcDbEntity
8
CUTOUTS
100
AcDbLine
10
-18.406250000000011
20
16.275250000000021
30
-5.5511151231257827e-16
11
-5.4062500000000213
21
16.275250000000028
31
-5.5511151231257827e-16
0
ARC
5
15F
100
AcDbEntity
8
CUTOUTS
100
AcDbCircle
10
-18.406250000000011
20
15.775250000000014
30
-5.5511151231257827e-16
40
0.49999999999999822
210
-4.3790577010150533e-47
220
0
230
1
100
AcDbArc
50
90
51
180
0
LINE
5
160
100
AcDbEntity
8
CUTOUTS
100
AcDbLine
10
-18.906250000000018
20
2.7752500000000069
30
0
11
-18.90625
21
15.775250000000005
31
0
0
ARC
5
161
100
AcDbEntity
8
CUTOUTS
100
AcDbCircle
10
-18.406250000000011
20
2.7752500000000069
30
0
40
0.50000000000000711
210
-4.3790577010150533e-47
220
-7.1536014699697014e-94
230
1
100
AcDbArc
50
180
51
270
0
LINE
5
162
100
AcDbEntity
8
CUTOUTS
100
AcDbLine
10
-5.4062500000000213
20
2.2752499999999998
30
0
11
-18.406250000000011
21
2.2752499999999998
31
0
0
ARC
5
163
100
AcDbEntity
8
CUTOUTS
100
AcDbCircle
10
-5.4062500000000213
20
2.7752500000000069
30
0
40
0.50000000000000711
210
-4.3790577010150533e-47
220
-8.044198495244479e-63
230
1
100
AcDbArc
50
-90
51
0
0
LINE
5
164
100
AcDbEntity
8
CUTOUTS
100
AcDbLine
10
-4.9062500000000142
20
15.775250000000014
30
-5.5511151231257827e-16
11
-4.9062500000000142
21
2.7752500000000246
31
-5.5511151231257827e-16
0
LINE
5
165
100
AcDbEntity
8
CUTOUTS
100
AcDbLine
10
8.8812499999999872
20
21.325249999999976
30
0
11
-4.1187500000000199
21
21.325249999999969
31
0
0
ARC
5
166
100
AcDbEntity
8
CUTOUTS
100
AcDbCircle
10
-4.1187500000000199
20
21.82524999999999
30
0
40
0.50000000000000711
210
-4.3790577010150533e-47
220
-7.1536014699697014e-94
230
1
100
AcDbArc
50
180
51
270
0
LINE
5
167
100
AcDbEntity
8
CUTOUTS
100
AcDbLine
10
-4.618750000000027
20
21.82524999999999
30
0
11
-4.618750000000027
21
34.82524999999999
31
0
0
ARC
5
168
100
AcDbEntity
8
CUTOUTS
100
AcDbCircle
10
-4.1187500000000199
20
34.825249999999997
30
0
40
0.49999999999999822
210
-4.3790577010150533e-47
220
-8.044198495244478e-63
230
1
100
AcDbArc
50
90
51
180
0
LINE
5
169
100
AcDbEntity
8
CUTOUTS
100
AcDbLine
10
-4.1187500000000199
20
35.32524999999999
30
-5.5511151231257827e-16
11
8.8812499999999872
21
35.325249999999997
31
-5.5511151231257827e-16
0
ARC
5
16A
100
AcDbEntity
8
CUTOUTS
100
AcDbCircle
10
8.8812499999999872
20
34.825249999999997
30
0
40
0.50000000000000711
210
-4.3790577010150533e-47
220
-7.1536014699697014e-94
230
1
100
AcDbArc
50
0
51
90
0
LINE
5
16B
100
AcDbEntity
8
CUTOUTS
100
AcDbLine
10
9.3812499999999943
20
34.825249999999997
30
0
11
9.3812499999999943
21
21.82525
31
0
0
ARC
5
16C
100
AcDbEntity
8
CUTOUTS
100
AcDbCircle
10
8.8812499999999872
20
21.82524999999999
30
0
40
0.49999999999999822
210
-4.3790577010150533e-47
220
-8.044198495244478e-63
230
1
100
AcDbArc
50
-90
51
0
0
LINE
5
16D
100
AcDbEntity
8
CUTOUTS
100
AcDbLine
10
14.931249999999991
20
35.32524999999999
30
-5.5511151231257827e-16
11
27.931249999999999
21
35.325249999999997
31
-5.5511151231257827e-16
0
ARC
5
16E
100
AcDbEntity
8
CUTOUTS
100
AcDbCircle
10
27.931249999999999
20
34.825249999999997
30
0
40
0.50000000000000711
210
-4.3790577010150533e-47
220
-7.1536014699697014e-94
230
1
100
AcDbArc
50
0
51
90
0
LINE
5
16F
100
AcDbEntity
8
CUTOUTS
100
AcDbLine
10
28.431250000000006
20
34.825249999999997
30
0
11
28.431250000000006
21
21.82525
31
0
0
ARC
5
170
100
AcDbEntity
8
CUTOUTS
100
AcDbCircle
10
27.931249999999999
20
21.82524999999999
30
0
40
0.49999999999999822
210
-4.3790577010150533e-47
220
-8.044198495244478e-63
230
1
100
AcDbArc
50
-90
51
0
0
LINE
5
171
100
AcDbEntity
8
CUTOUTS
100
AcDbLine
10
27.931249999999999
20
21.325249999999976
30
0
11
14.931249999999991
21
21.325249999999969
31
0
0
ARC
5
172
100
AcDbEntity
8
CUTOUTS
100
AcDbCircle
10
14.931249999999991
20
21.82524999999999
30
0
40
0.50000000000000711
210
-4.3790577010150533e-47
220
-7.1536014699697014e-94
230
1
100
AcDbArc
50
180
51
270
0
LINE
5
173
100
AcDbEntity
8
CUTOUTS
100
AcDbLine
10
14.431249999999984
20
21.82524999999999
30
0
11
14.431249999999984
21
34.82524999999999
31
0
0
ARC
5
174
100
AcDbEntity
8
CUTOUTS
100
AcDbCircle
10
14.931249999999991
20
34.825249999999997
30
0
40
0.49999999999999822
210
-4.3790577010150533e-47
220
-8.044198495244478e-63
230
1
100
AcDbArc
50
90
51
180
0
LINE
5
175
100
AcDbEntity
8
CUTOUTS
100
AcDbLine
10
47.481250000000017
20
34.825249999999997
30
0
11
47.481250000000017
21
21.82525
31
0
0
ARC
5
176
100
AcDbEntity
8
CUTOUTS
100
AcDbCircle
10
46.98125000000001
20
21.82524999999999
30
0
40
0.49999999999999822
210
-4.3790577010150533e-47
220
-8.044198495244478e-63
230
1
100
AcDbArc
50
-90
51
0
0
LINE
5
177
100
AcDbEntity
8
CUTOUTS
100
AcDbLine
10
46.98125000000001
20
21.325249999999976
30
0
11
33.981250000000003
21
21.325249999999969
31
0
0
ARC
5
178
100
AcDbEntity
8
CUTOUTS
100
AcDbCircle
10
33.981250000000003
20
21.82524999999999
30
0
40
0.50000000000000711
210
-4.3790577010150533e-47
220
-7.1536014699697014e-94
230
1
100
AcDbArc
50
180
51
270
0
LINE
5
179
100
AcDbEntity
8
CUTOUTS
100
AcDbLine
10
33.481249999999996
20
21.82524999999999
30
0
11
33.481249999999996
21
34.82524999999999
31
0
0
ARC
5
17A
100
AcDbEntity
8
CUTOUTS
100
AcDbCircle
10
33.981250000000003
20
34.825249999999997
30
0
40
0.49999999999999822
210
-4.3790577010150533e-47
220
-8.044198495244478e-63
230
1
100
AcDbArc
50
90
51
180
0
LINE
5
17B
100
AcDbEntity
8
CUTOUTS
100
AcDbLine
10
33.981250000000003
20
35.32524999999999
30
-5.5511151231257827e-16
11
46.98125000000001
21
35.325249999999997
31
-5.5511151231257827e-16
0
ARC
5
17C
100
AcDbEntity
8
CUTOUTS
100
AcDbCircle
10
46.98125000000001
20
34.825249999999997
30
0
40
0.50000000000000711
210
-4.3790577010150533e-47
220
-7.1536014699697014e-94
230
1
100
AcDbArc
50
0
51
90
0
LINE
5
17D
100
AcDbEntity
8
CUTOUTS
100
AcDbLine
10
53.031249999999979
20
35.32524999999999
30
-5.5511151231257827e-16
11
66.031249999999986
21
35.325249999999997
31
-5.5511151231257827e-16
0
ARC
5
17E
100
AcDbEntity
8
CUTOUTS
100
AcDbCircle
10
66.031249999999986
20
34.825249999999997
30
0
40
0.50000000000000711
210
-4.3790577010150533e-47
220
-7.1536014699697014e-94
230
1
100
AcDbArc
50
0
51
90
0
LINE
5
17F
100
AcDbEntity
8
CUTOUTS
100
AcDbLine
10
66.53125
20
34.825249999999997
30
0
11
66.53125
21
21.82525
31
0
0
ARC
5
180
100
AcDbEntity
8
CUTOUTS
100
AcDbCircle
10
66.031249999999986
20
21.82524999999999
30
0
40
0.49999999999999822
210
-4.3790577010150533e-47
220
-8.044198495244478e-63
230
1
100
AcDbArc
50
-90
51
0
0
LINE
5
181
100
AcDbEntity
8
CUTOUTS
100
AcDbLine
10
66.031249999999986
20
21.325249999999976
30
0
11
53.031249999999979
21
21.325249999999969
31
0
0
ARC
5
182
100
AcDbEntity
8
CUTOUTS
100
AcDbCircle
10
53.031249999999979
20
21.82524999999999
30
0
40
0.50000000000000711
210
-4.3790577010150533e-47
220
-7.1536014699697014e-94
230
1
100
AcDbArc
50
180
51
270
0
LINE
5
183
100
AcDbEntity
8
CUTOUTS
100
AcDbLine
10
52.531249999999972
20
21.82524999999999
30
0
11
52.531249999999972
21
34.82524999999999
31
0
0
ARC
5
184
100
AcDbEntity
8
CUTOUTS
100
AcDbCircle
10
53.031249999999979
20
34.825249999999997
30
0
40
0.49999999999999822
210
-4.3790577010150533e-47
220
-8.044198495244478e-63
230
1
100
AcDbArc
50
90
51
180
0
ARC
5
185
100
AcDbEntity
8
CUTOUTS
100
AcDbCircle
10
72.081249999999983
20
34.825249999999997
30
0
40
0.49999999999999822
210
-4.3790577010150533e-47
220
-8.044198495244478e-63
230
1
100
AcDbArc
50
90
51
180
0
LINE
5
186
100
AcDbEntity
8
CUTOUTS
100
AcDbLine
10
71.581249999999983
20
21.82524999999999
30
0
11
71.581249999999983
21
34.82524999999999
31
0
0
ARC
5
187
100
AcDbEntity
8
CUTOUTS
100
AcDbCircle
10
72.081249999999983
20
21.82524999999999
30
0
40
0.50000000000000711
210
-4.3790577010150533e-47
220
-7.1536014699697014e-94
230
1
100
AcDbArc
50
180
51
270
0
LINE
5
188
100
AcDbEntity
8
CUTOUTS
100
AcDbLine
10
85.081249999999997
20
21.325249999999976
30
0
11
72.081249999999983
21
21.325249999999976
31
0
0
ARC
5
189
100
AcDbEntity
8
CUTOUTS
100
AcDbCircle
10
85.081249999999997
20
21.825249999999965
30
0
40
0.49999999999999822
210
-4.3790577010150533e-47
220
-8.044198495244478e-63
230
1
100
AcDbArc
50
-90
51
0
0
LINE
5
18A
100
AcDbEntity
8
CUTOUTS
100
AcDbLine
10
85.581250000000011
20
34.825249999999969
30
0
11
85.581250000000011
21
21.825249999999976
31
0
0
ARC
5
18B
100
AcDbEntity
8
CUTOUTS
100
AcDbCircle
10
85.081249999999997
20
34.825249999999969
30
0
40
0.50000000000000711
210
-4.3790577010150533e-47
220
-7.1536014699697014e-94
230
1
100
AcDbArc
50
0
51
90
0
LINE
5
18C
100
AcDbEntity
8
CUTOUTS
100
AcDbLine
10
72.081249999999983
20
35.32524999999999
30
-5.5511151231257827e-16
11
85.081249999999997
21
35.32524999999999
31
-5.5511151231257827e-16
0
LINE
5
18D
100
AcDbEntity
8
CUTOUTS
100
AcDbLine
10
111.27500000000005
20
21.325249999999993
30
0
11
98.275000000000034
21
21.325249999999983
31
0
0
ARC
5
18E
100
AcDbEntity
8
CUTOUTS
100
AcDbCircle
10
98.275000000000034
20
21.82525
30
0
40
0.50000000000000711
210
-4.3790577010150533e-47
220
-7.1536014699697014e-94
230
1
100
AcDbArc
50
180
51
270
0
LINE
5
18F
100
AcDbEntity
8
CUTOUTS
100
AcDbLine
10
97.775000000000034
20
21.82525
30
0
11
97.775000000000034
21
34.825249999999997
31
0
0
ARC
5
190
100
AcDbEntity
8
CUTOUTS
100
AcDbCircle
10
98.275000000000034
20
34.82524999999999
30
0
40
0.49999999999999822
210
-4.3790577010150533e-47
220
-8.044198495244478e-63
230
1
100
AcDbArc
50
90
51
180
0
LINE
5
191
100
AcDbEntity
8
CUTOUTS
100
AcDbLine
10
98.275000000000034
20
35.325249999999983
30
-5.5511151231257827e-16
11
111.27500000000005
21
35.325249999999954
31
-5.5511151231257827e-16
0
ARC
5
192
100
AcDbEntity
8
CUTOUTS
100
AcDbCircle
10
111.27500000000005
20
34.82524999999999
30
0
40
0.49999999999997158
210
-4.3790577010150533e-47
220
-7.1536014699697014e-94
230
1
100
AcDbArc
50
0
51
90
0
LINE
5
193
100
AcDbEntity
8
CUTOUTS
100
AcDbLine
10
111.77500000000002
20
34.82524999999999
30
0
11
111.77500000000006
21
21.82524999999999
31
0
0
ARC
5
194
100
AcDbEntity
8
CUTOUTS
100
AcDbCircle
10
111.27500000000005
20
21.82525
30
0
40
0.49999999999999822
210
-4.3790577010150533e-47
220
-8.044198495244478e-63
230
1
100
AcDbArc
50
270
51
360
0
LINE
5
195
100
AcDbEntity
8
CUTOUTS
100
AcDbLine
10
14.143749999999997
20
15.775249999999978
30
-5.5511151231257827e-16
11
14.143749999999997
21
2.7752499999999714
31
-5.5511151231257827e-16
0
ARC
5
196
100
AcDbEntity
8
CUTOUTS
100
AcDbCircle
10
13.64374999999999
20
2.7752499999999714
30
0
40
0.50000000000000711
210
-4.3790577010150533e-47
220
-8.044198495244479e-63
230
1
100
AcDbArc
50
-90
51
0
0
LINE
5
197
100
AcDbEntity
8
CUTOUTS
100
AcDbLine
10
13.64374999999999
20
2.2752499999999642
30
0
11
0.64375000000000071
21
2.2752499999999642
31
0
0
ARC
5
198
100
AcDbEntity
8
CUTOUTS
100
AcDbCircle
10
0.64375000000001847
20
2.7752499999999714
30
0
40
0.50000000000000711
210
-4.3790577010150533e-47
220
-7.1536014699697014e-94
230
1
100
AcDbArc
50
180
51
269.99999999999795
0
LINE
5
199
100
AcDbEntity
8
CUTOUTS
100
AcDbLine
10
0.14375000000001137
20
2.7752499999999714
30
0
11
0.14375000000001137
21
15.77524999999997
31
0
0
ARC
5
19A
100
AcDbEntity
8
CUTOUTS
100
AcDbCircle
10
0.64375000000001847
20
15.775249999999978
30
-5.5511151231257827e-16
40
0.49999999999999822
210
-4.3790577010150533e-47
220
1.2154326714572586e-62
230
1
100
AcDbArc
50
89.999999999999986
51
180
0
LINE
5
19B
100
AcDbEntity
8
CUTOUTS
100
AcDbLine
10
0.64375000000001847
20
16.275249999999986
30
-5.5511151231257827e-16
11
13.643750000000008
21
16.275249999999993
31
-5.5511151231257827e-16
0
ARC
5
19C
100
AcDbEntity
8
CUTOUTS
100
AcDbCircle
10
13.64374999999999
20
15.775249999999978
30
-5.5511151231257827e-16
40
0.50000000000000711
210
0
220
-7.1536014699697014e-94
230
1
100
AcDbArc
50
0
51
89.999999999997954
0
ARC
5
19D
100
AcDbEntity
8
CUTOUTS
100
AcDbCircle
10
32.693749999999966
20
15.775249999999978
30
-5.5511151231257827e-16
40
0.50000000000000711
210
0
220
-7.1536014699697014e-94
230
1
100
AcDbArc
50
0
51
90
0
LINE
5
19E
100
AcDbEntity
8
CUTOUTS
100
AcDbLine
10
19.693749999999994
20
16.275249999999986
30
-5.5511151231257827e-16
11
32.693749999999966
21
16.275249999999993
31
-5.5511151231257827e-16
0
ARC
5
19F
100
AcDbEntity
8
CUTOUTS
100
AcDbCircle
10
19.693749999999994
20
15.775249999999978
30
-5.5511151231257827e-16
40
0.49999999999999822
210
-4.3790577010150533e-47
220
0
230
1
100
AcDbArc
50
90
51
180
0
LINE
5
1A0
100
AcDbEntity
8
CUTOUTS
100
AcDbLine
10
19.193749999999987
20
2.7752500000000069
30
0
11
19.193749999999987
21
15.775250000000005
31
0
0
ARC
5
1A1
100
AcDbEntity
8
CUTOUTS
100
AcDbCircle
10
19.693749999999994
20
2.7752500000000069
30
0
40
0.50000000000000711
210
-4.3790577010150533e-47
220
-7.1536014699697014e-94
230
1
100
AcDbArc
50
180
51
270
0
LINE
5
1A2
100
AcDbEntity
8
CUTOUTS
100
AcDbLine
10
32.693749999999966
20
2.2752499999999998
30
0
11
19.693749999999994
21
2.2752499999999998
31
0
0
ARC
5
1A3
100
AcDbEntity
8
CUTOUTS
100
AcDbCircle
10
32.693749999999966
20
2.7752500000000069
30
0
40
0.50000000000000711
210
-4.3790577010150533e-47
220
-8.044198495244479e-63
230
1
100
AcDbArc
50
270
51
360
0
LINE
5
1A4
100
AcDbEntity
8
CUTOUTS
100
AcDbLine
10
33.193749999999973
20
15.775249999999978
30
-5.5511151231257827e-16
11
33.193749999999973
21
2.7752499999999714
31
-5.5511151231257827e-16
0
ARC
5
1A5
100
AcDbEntity
8
CUTOUTS
100
AcDbCircle
10
51.743750000000013
20
2.7752500000000069
30
0
40
0.50000000000000711
210
-4.3790577010150533e-47
220
-8.044198495244479e-63
230
1
100
AcDbArc
50
270
51
360
0
LINE
5
1A6
100
AcDbEntity
8
CUTOUTS
100
AcDbLine
10
52.243749999999984
20
15.775249999999978
30
-5.5511151231257827e-16
11
52.24375000000002
21
2.7752499999999714
31
-5.5511151231257827e-16
0
ARC
5
1A7
100
AcDbEntity
8
CUTOUTS
100
AcDbCircle
10
51.743750000000013
20
15.775249999999978
30
-5.5511151231257827e-16
40
0.49999999999997158
210
0
220
-7.1536014699697014e-94
230
1
100
AcDbArc
50
0
51
90
0
LINE
5
1A8
100
AcDbEntity
8
CUTOUTS
100
AcDbLine
10
38.743750000000006
20
16.275249999999986
30
-5.5511151231257827e-16
11
51.743750000000013
21
16.275249999999957
31
-5.5511151231257827e-16
0
ARC
5
1A9
100
AcDbEntity
8
CUTOUTS
100
AcDbCircle
10
38.743750000000006
20
15.775249999999978
30
-5.5511151231257827e-16
40
0.49999999999999822
210
-4.3790577010150533e-47
220
0
230
1
100
AcDbArc
50
90
51
180
0
LINE
5
1AA
100
AcDbEntity
8
CUTOUTS
100
AcDbLine
10
38.243749999999999
20
2.7752500000000069
30
0
11
38.243749999999999
21
15.775250000000005
31
0
0
ARC
5
1AB
100
AcDbEntity
8
CUTOUTS
100
AcDbCircle
10
38.743750000000006
20
2.7752500000000069
30
0
40
0.50000000000000711
210
-4.3790577010150533e-47
220
-7.1536014699697014e-94
230
1
100
AcDbArc
50
180
51
270
0
LINE
5
1AC
100
AcDbEntity
8
CUTOUTS
100
AcDbLine
10
51.743750000000013
20
2.2752499999999998
30
0
11
38.743750000000006
21
2.2752499999999998
31
0
0
LINE
5
1AD
100
AcDbEntity
8
CUTOUTS
100
AcDbLine
10
71.293750000000031
20
15.775249999999978
30
-5.5511151231257827e-16
11
71.293750000000031
21
2.7752499999999714
31
-5.5511151231257827e-16
0
ARC
5
1AE
100
AcDbEntity
8
CUTOUTS
100
AcDbCircle
10
70.793750000000017
20
2.7752500000000069
30
0
40
0.50000000000000711
210
-4.3790577010150533e-47
220
-8.044198495244479e-63
230
1
100
AcDbArc
50
270
51
360
0
LINE
5
1AF
100
AcDbEntity
8
CUTOUTS
100
AcDbLine
10
70.793750000000017
20
2.2752499999999998
30
0
11
57.793750000000017
21
2.2752499999999998
31
0
0
ARC
5
1B0
100
AcDbEntity
8
CUTOUTS
100
AcDbCircle
10
57.793750000000017
20
2.7752500000000069
30
0
40
0.50000000000000711
210
-4.3790577010150533e-47
220
-7.1536014699697014e-94
230
1
100
AcDbArc
50
180
51
270
0
LINE
5
1B1
100
AcDbEntity
8
CUTOUTS
100
AcDbLine
10
57.29375000000001
20
2.7752500000000069
30
0
11
57.29375000000001
21
15.775250000000005
31
0
0
ARC
5
1B2
100
AcDbEntity
8
CUTOUTS
100
AcDbCircle
10
57.793750000000017
20
15.775249999999978
30
-5.5511151231257827e-16
40
0.49999999999999822
210
-4.3790577010150533e-47
220
0
230
1
100
AcDbArc
50
90
51
180
0
LINE
5
1B3
100
AcDbEntity
8
CUTOUTS
100
AcDbLine
10
57.793750000000017
20
16.275249999999986
30
-5.5511151231257827e-16
11
70.793750000000017
21
16.275249999999993
31
-5.5511151231257827e-16
0
ARC
5
1B4
100
AcDbEntity
8
CUTOUTS
100
AcDbCircle
10
70.793750000000017
20
15.775249999999978
30
-5.5511151231257827e-16
40
0.50000000000000711
210
0
220
-7.1536014699697014e-94
230
1
100
AcDbArc
50
0
51
90
0
ARC
5
1B5
100
AcDbEntity
8
CUTOUTS
100
AcDbCircle
10
76.84375
20
15.775249999999978
30
-5.5511151231257827e-16
40
0.49999999999999822
210
-4.3790577010150533e-47
220
0
230
1
100
AcDbArc
50
90
51
180
0
LINE
5
1B6
100
AcDbEntity
8
CUTOUTS
100
AcDbLine
10
76.343749999999986
20
2.7752500000000069
30
0
11
76.343749999999986
21
15.775250000000005
31
0
0
ARC
5
1B7
100
AcDbEntity
8
CUTOUTS
100
AcDbCircle
10
76.84375
20
2.7752500000000069
30
0
40
0.50000000000000711
210
-4.3790577010150533e-47
220
-7.1536014699697014e-94
230
1
100
AcDbArc
50
180
51
270
0
LINE
5
1B8
100
AcDbEntity
8
CUTOUTS
100
AcDbLine
10
89.84375
20
2.2752499999999998
30
0
11
76.84375
21
2.2752499999999998
31
0
0
ARC
5
1B9
100
AcDbEntity
8
CUTOUTS
100
AcDbCircle
10
89.84375
20
2.7752500000000069
30
0
40
0.50000000000000711
210
-4.3790577010150533e-47
220
-8.044198495244479e-63
230
1
100
AcDbArc
50
270
51
360
0
LINE
5
1BA
100
AcDbEntity
8
CUTOUTS
100
AcDbLine
10
90.34375
20
15.775249999999978
30
-5.5511151231257827e-16
11
90.34375
21
2.7752499999999714
31
-5.5511151231257827e-16
0
ARC
5
1BB
100
AcDbEntity
8
CUTOUTS
100
AcDbCircle
10
89.84375
20
15.775249999999978
30
-5.5511151231257827e-16
40
0.50000000000000711
210
0
220
-7.1536014699697014e-94
230
1
100
AcDbArc
50
0
51
90
0
LINE
5
1BC
100
AcDbEntity
8
CUTOUTS
100
AcDbLine
10
76.84375
20
16.275249999999986
30
-5.5511151231257827e-16
11
89.84375
21
16.275249999999993
31
-5.5511151231257827e-16
0
LINE
5
1BD
100
AcDbEntity
8
CUTOUTS
100
AcDbLine
10
113.65625000000006
20
2.2752499999999998
30
0
11
100.65625000000004
21
2.2752499999999998
31
0
0
ARC
5
1BE
100
AcDbEntity
8
CUTOUTS
100
AcDbCircle
10
100.65625000000004
20
2.7752500000000069
30
0
40
0.50000000000000711
210
-4.3790577010150533e-47
220
-7.1536014699697014e-94
230
1
100
AcDbArc
50
180
51
270
0
LINE
5
1BF
100
AcDbEntity
8
CUTOUTS
100
AcDbLine
10
100.15625000000003
20
2.7752500000000069
30
0
11
100.15625000000003
21
15.775250000000005
31
0
0
ARC
5
1C0
100
AcDbEntity
8
CUTOUTS
100
AcDbCircle
10
100.65625000000004
20
15.775249999999996
30
-5.5511151231257827e-16
40
0.49999999999999822
210
-4.3790577010150533e-47
220
0
230
1
100
AcDbArc
50
90
51
180
0
LINE
5
1C1
100
AcDbEntity
8
CUTOUTS
100
AcDbLine
10
100.65625000000004
20
16.275249999999986
30
-5.5511151231257827e-16
11
113.65625000000006
21
16.275249999999993
31
-5.5511151231257827e-16
0
ARC
5
1C2
100
AcDbEntity
8
CUTOUTS
100
AcDbCircle
10
113.65625000000006
20
15.775249999999996
30
-5.5511151231257827e-16
40
0.50000000000000711
210
0
220
-7.1536014699697014e-94
230
1
100
AcDbArc
50
0
51
90
0
LINE
5
1C3
100
AcDbEntity
8
CUTOUTS
100
AcDbLine
10
114.15625000000006
20
15.775249999999996
30
-5.5511151231257827e-16
11
114.15625000000006
21
2.7752499999999891
31
-5.5511151231257827e-16
0
ARC
5
1C4
100
AcDbEntity
8
CUTOUTS
100
AcDbCircle
10
113.65625000000006
20
2.7752500000000069
30
0
40
0.50000000000000711
210
-4.3790577010150533e-47
220
-8.044198495244479e-63
230
1
100
AcDbArc
50
270
51
360
0
LINE
5
1C5
100
AcDbEntity
8
CUTOUTS
100
AcDbLine
10
-98.275000000000034
20
-16.774750000000012
30
0
11
-111.27500000000005
21
-16.774749999999994
31
0
0
ARC
5
1C6
100
AcDbEntity
8
CUTOUTS
100
AcDbCircle
10
-111.27500000000005
20
-16.274750000000004
30
0
40
0.50000000000000711
210
-4.3790577010149756e-47
220
-7.1536014699697014e-94
230
1
100
AcDbArc
50
180
51
270
0
LINE
5
1C7
100
AcDbEntity
8
CUTOUTS
100
AcDbLine
10
-111.77500000000002
20
-16.274750000000004
30
0
11
-111.77500000000002
21
-3.2747499999999974
31
0
0
ARC
5
1C8
100
AcDbEntity
8
CUTOUTS
100
AcDbCircle
10
-111.27500000000005
20
-3.2747499999999974
30
0
40
0.50000000000000711
210
-4.3790577010150533e-47
220
-8.044198495244479e-63
230
1
100
AcDbArc
50
90
51
180
0
LINE
5
1C9
100
AcDbEntity
8
CUTOUTS
100
AcDbLine
10
-111.27500000000005
20
-2.7747499999999903
30
0
11
-98.275000000000034
21
-2.7747499999999903
31
0
0
ARC
5
1CA
100
AcDbEntity
8
CUTOUTS
100
AcDbCircle
10
-98.275000000000034
20
-3.2747499999999974
30
0
40
0.50000000000000711
210
-4.3790577010150533e-47
220
-7.1536014699697014e-94
230
1
100
AcDbArc
50
0
51
90.000000000003254
0
LINE
5
1CB
100
AcDbEntity
8
CUTOUTS
100
AcDbLine
10
-97.775000000000034
20
-3.2747499999999974
30
0
11
-97.775000000000034
21
-16.274750000000004
31
0
0
ARC
5
1CC
100
AcDbEntity
8
CUTOUTS
100
AcDbCircle
10
-98.275000000000034
20
-16.274750000000004
30
0
40
0.50000000000000711
210
-4.3790577010150533e-47
220
-8.044198495244479e-63
230
1
100
AcDbArc
50
-90
51
0
0
LINE
5
1CD
100
AcDbEntity
8
CUTOUTS
100
AcDbLine
10
-85.581250000000011
20
-16.274750000000004
30
0
11
-85.581250000000011
21
-3.2747499999999974
31
0
0
ARC
5
1CE
100
AcDbEntity
8
CUTOUTS
100
AcDbCircle
10
-85.08125000000004
20
-3.2747499999999974
30
0
40
0.50000000000000711
210
-4.3790577010150533e-47
220
-8.044198495244479e-63
230
1
100
AcDbArc
50
90
51
180
0
LINE
5
1CF
100
AcDbEntity
8
CUTOUTS
100
AcDbLine
10
-85.08125000000004
20
-2.7747499999999903
30
0
11
-72.08125000000004
21
-2.7747499999999903
31
0
0
ARC
5
1D0
100
AcDbEntity
8
CUTOUTS
100
AcDbCircle
10
-72.081250000000011
20
-3.2747499999999974
30
0
40
0.50000000000000711
210
-4.3790577010150533e-47
220
-7.1536014699697014e-94
230
1
100
AcDbArc
50
0
51
90
0
LINE
5
1D1
100
AcDbEntity
8
CUTOUTS
100
AcDbLine
10
-71.581249999999997
20
-3.2747499999999974
30
0
11
-71.581250000000011
21
-16.274750000000004
31
0
0
ARC
5
1D2
100
AcDbEntity
8
CUTOUTS
100
AcDbCircle
10
-72.08125000000004
20
-16.274750000000004
30
0
40
0.50000000000000711
210
-4.3790577010150533e-47
220
-8.044198495244479e-63
230
1
100
AcDbArc
50
-90
51
0
0
LINE
5
1D3
100
AcDbEntity
8
CUTOUTS
100
AcDbLine
10
-72.08125000000004
20
-16.774750000000012
30
0
11
-85.08125000000004
21
-16.774749999999994
31
0
0
ARC
5
1D4
100
AcDbEntity
8
CUTOUTS
100
AcDbCircle
10
-85.08125000000004
20
-16.274750000000004
30
0
40
0.50000000000000711
210
-4.3790577010149756e-47
220
-7.1536014699697014e-94
230
1
100
AcDbArc
50
180
51
269.99999999999835
0
ARC
5
1D5
100
AcDbEntity
8
CUTOUTS
100
AcDbCircle
10
-53.031250000000028
20
-3.2747499999999974
30
0
40
0.50000000000000711
210
-4.3790577010150533e-47
220
-7.1536014699697014e-94
230
1
100
AcDbArc
50
0
51
89.99999999999838
0
LINE
5
1D6
100
AcDbEntity
8
CUTOUTS
100
AcDbLine
10
-66.03125
20
-2.7747499999999903
30
0
11
-53.03125
21
-2.7747499999999903
31
0
0
ARC
5
1D7
100
AcDbEntity
8
CUTOUTS
100
AcDbCircle
10
-66.03125
20
-3.2747499999999974
30
0
40
0.50000000000000711
210
-4.3790577010150533e-47
220
-8.044198495244479e-63
230
1
100
AcDbArc
50
90
51
180
0
LINE
5
1D8
100
AcDbEntity
8
CUTOUTS
100
AcDbLine
10
-66.531250000000043
20
-16.274750000000004
30
0
11
-66.531250000000043
21
-3.2747499999999974
31
0
0
ARC
5
1D9
100
AcDbEntity
8
CUTOUTS
100
AcDbCircle
10
-66.031250000000043
20
-16.274750000000004
30
0
40
0.49999999999999822
210
-4.3790577010150533e-47
220
-7.1536014699697014e-94
230
1
100
AcDbArc
50
180
51
270
0
LINE
5
1DA
100
AcDbEntity
8
CUTOUTS
100
AcDbLine
10
-53.031250000000028
20
-16.774749999999994
30
0
11
-66.031250000000043
21
-16.774749999999994
31
0
0
ARC
5
1DB
100
AcDbEntity
8
CUTOUTS
100
AcDbCircle
10
-53.031250000000028
20
-16.274750000000004
30
0
40
0.49999999999998934
210
-4.3790577010150533e-47
220
-8.044198495244478e-63
230
1
100
AcDbArc
50
-90
51
0
0
LINE
5
1DC
100
AcDbEntity
8
CUTOUTS
100
AcDbLine
10
-52.531250000000028
20
-3.2747499999999974
30
0
11
-52.531250000000043
21
-16.274750000000004
31
0
0
ARC
5
1DD
100
AcDbEntity
8
CUTOUTS
100
AcDbCircle
10
-46.981250000000031
20
-3.2747499999999974
30
0
40
0.50000000000000711
210
-4.3790577010150533e-47
220
-8.044198495244479e-63
230
1
100
AcDbArc
50
90
51
180
0
LINE
5
1DE
100
AcDbEntity
8
CUTOUTS
100
AcDbLine
10
-47.481250000000031
20
-16.274750000000004
30
0
11
-47.481250000000031
21
-3.2747499999999974
31
0
0
ARC
5
1DF
100
AcDbEntity
8
CUTOUTS
100
AcDbCircle
10
-46.981250000000031
20
-16.274750000000004
30
0
40
0.50000000000000711
210
-4.3790577010150533e-47
220
-7.1536014699697014e-94
230
1
100
AcDbArc
50
180
51
270
0
LINE
5
1E0
100
AcDbEntity
8
CUTOUTS
100
AcDbLine
10
-33.981250000000017
20
-16.774750000000012
30
0
11
-46.981250000000031
21
-16.774750000000012
31
0
0
ARC
5
1E1
100
AcDbEntity
8
CUTOUTS
100
AcDbCircle
10
-33.981250000000017
20
-16.274750000000004
30
0
40
0.50000000000000711
210
-4.3790577010150533e-47
220
-8.044198495244479e-63
230
1
100
AcDbArc
50
-90
51
0
0
LINE
5
1E2
100
AcDbEntity
8
CUTOUTS
100
AcDbLine
10
-33.481250000000017
20
-3.2747499999999974
30
0
11
-33.481250000000017
21
-16.274750000000004
31
0
0
ARC
5
1E3
100
AcDbEntity
8
CUTOUTS
100
AcDbCircle
10
-33.981250000000017
20
-3.2747499999999974
30
0
40
0.50000000000000711
210
-4.3790577010150533e-47
220
-7.1536014699697014e-94
230
1
100
AcDbArc
50
0
51
90
0
LINE
5
1E4
100
AcDbEntity
8
CUTOUTS
100
AcDbLine
10
-46.981250000000031
20
-2.7747499999999903
30
0
11
-33.981250000000017
21
-2.7747499999999903
31
0
0
ARC
5
1E5
100
AcDbEntity
8
CUTOUTS
100
AcDbCircle
10
-14.931250000000027
20
-16.274750000000004
30
0
40
0.49999999999998934
210
-4.3790577010150533e-47
220
-8.044198495244478e-63
230
1
100
AcDbArc
50
-90
51
0
0
LINE
5
1E6
100
AcDbEntity
8
CUTOUTS
100
AcDbLine
10
-14.43125000000002
20
-3.2747499999999974
30
0
11
-14.431250000000038
21
-16.274750000000004
31
0
0
ARC
5
1E7
100
AcDbEntity
8
CUTOUTS
100
AcDbCircle
10
-14.931250000000027
20
-3.2747499999999974
30
0
40
0.50000000000000711
210
-4.3790577010150533e-47
220
-7.1536014699697014e-94
230
1
100
AcDbArc
50
0
51
90.000000000002032
0
LINE
5
1E8
100
AcDbEntity
8
CUTOUTS
100
AcDbLine
10
-27.931250000000016
20
-2.7747499999999903
30
0
11
-14.931250000000045
21
-2.7747499999999903
31
0
0
ARC
5
1E9
100
AcDbEntity
8
CUTOUTS
100
AcDbCircle
10
-27.931250000000016
20
-3.2747499999999974
30
0
40
0.50000000000000711
210
-4.3790577010150533e-47
220
-8.044198495244479e-63
230
1
100
AcDbArc
50
90
51
180
0
LINE
5
1EA
100
AcDbEntity
8
CUTOUTS
100
AcDbLine
10
-28.431250000000023
20
-16.274750000000004
30
0
11
-28.431250000000023
21
-3.2747499999999974
31
0
0
ARC
5
1EB
100
AcDbEntity
8
CUTOUTS
100
AcDbCircle
10
-27.931250000000016
20
-16.274750000000004
30
0
40
0.50000000000000711
210
-4.3790577010150533e-47
220
-7.1536014699697014e-94
230
1
100
AcDbArc
50
180
51
270.00000000000205
0
LINE
5
1EC
100
AcDbEntity
8
CUTOUTS
100
AcDbLine
10
-14.931250000000027
20
-16.774749999999994
30
0
11
-27.931249999999999
21
-16.774750000000012
31
0
0
ARC
5
1ED
100
AcDbEntity
8
CUTOUTS
100
AcDbCircle
10
4.1187499999999844
20
-3.2747500000000329
30
0
40
0.50000000000000711
210
-4.3790577010150533e-47
220
-7.1536014699697014e-94
230
1
100
AcDbArc
50
0
51
90
0
LINE
5
1EE
100
AcDbEntity
8
CUTOUTS
100
AcDbLine
10
-8.881250000000005
20
-2.7747499999999903
30
0
11
4.1187499999999844
21
-2.774750000000008
31
0
0
ARC
5
1EF
100
AcDbEntity
8
CUTOUTS
100
AcDbCircle
10
-8.881250000000005
20
-3.2747499999999974
30
0
40
0.50000000000000711
210
-4.3790577010150533e-47
220
-8.044198495244479e-63
230
1
100
AcDbArc
50
90
51
180
0
LINE
5
1F0
100
AcDbEntity
8
CUTOUTS
100
AcDbLine
10
-9.3812500000000121
20
-16.274750000000004
30
0
11
-9.3812500000000121
21
-3.2747499999999974
31
0
0
ARC
5
1F1
100
AcDbEntity
8
CUTOUTS
100
AcDbCircle
10
-8.881250000000005
20
-16.274750000000004
30
0
40
0.50000000000000711
210
-4.3790577010150533e-47
220
-7.1536014699697014e-94
230
1
100
AcDbArc
50
180
51
270.00000000000409
0
LINE
5
1F2
100
AcDbEntity
8
CUTOUTS
100
AcDbLine
10
4.1187500000000554
20
-16.774750000000047
30
0
11
-8.8812499999999339
21
-16.774750000000029
31
0
0
ARC
5
1F3
100
AcDbEntity
8
CUTOUTS
100
AcDbCircle
10
4.1187500000000554
20
-16.27475000000004
30
0
40
0.50000000000000711
210
-4.3790577010150533e-47
220
-8.044198495244479e-63
230
1
100
AcDbArc
50
-90
51
0
0
LINE
5
1F4
100
AcDbEntity
8
CUTOUTS
100
AcDbLine
10
4.6187499999999915
20
-3.2747500000000329
30
0
11
4.618750000000027
21
-16.27475000000004
31
0
0
ARC
5
1F5
100
AcDbEntity
8
CUTOUTS
100
AcDbCircle
10
-48.268750000000026
20
-35.324749999999995
30
0
40
0.49999999999998934
210
-4.3790577010150533e-47
220
-8.044198495244478e-63
230
1
100
AcDbArc
50
-90
51
0
0
LINE
5
1F6
100
AcDbEntity
8
CUTOUTS
100
AcDbLine
10
-47.768750000000026
20
-22.324749999999991
30
0
11
-47.76875000000004
21
-35.324749999999995
31
0
0
ARC
5
1F7
100
AcDbEntity
8
CUTOUTS
100
AcDbCircle
10
-48.268750000000026
20
-22.324749999999991
30
0
40
0.50000000000000711
210
-4.3790577010150533e-47
220
-7.1536014699697014e-94
230
1
100
AcDbArc
50
0
51
89.99999999999838
0
LINE
5
1F8
100
AcDbEntity
8
CUTOUTS
100
AcDbLine
10
-118.41875000000005
20
-21.824749999999984
30
0
11
-48.268750000000018
21
-21.824749999999984
31
0
0
ARC
5
1F9
100
AcDbEntity
8
CUTOUTS
100
AcDbCircle
10
-118.41875000000005
20
-22.324749999999991
30
0
40
0.50000000000000711
210
-4.3790577010150533e-47
220
-8.044198495244479e-63
230
1
100
AcDbArc
50
90
51
180
0
LINE
5
1FA
100
AcDbEntity
8
CUTOUTS
100
AcDbLine
10
-118.91875000000002
20
-35.324749999999995
30
0
11
-118.91875000000002
21
-22.324749999999991
31
0
0
ARC
5
1FB
100
AcDbEntity
8
CUTOUTS
100
AcDbCircle
10
-118.41875000000005
20
-35.324749999999995
30
0
40
0.50000000000000711
210
-4.3790577010149756e-47
220
-7.1536014699697014e-94
230
1
100
AcDbArc
50
180
51
270
0
LINE
5
1FC
100
AcDbEntity
8
CUTOUTS
100
AcDbLine
10
-48.268750000000026
20
-35.824749999999987
30
0
11
-118.41875000000005
21
-35.824750000000009
31
0
0
ARC
5
1FD
100
AcDbEntity
8
CUTOUTS
100
AcDbCircle
10
-32.875500000000017
20
-34.324750000000002
30
-5.5511151231257827e-16
40
0.50000000000000711
210
-4.3790577010150533e-47
220
0
230
1
100
AcDbArc
50
-90
51
0
0
LINE
5
1FE
100
AcDbEntity
8
CUTOUTS
100
AcDbLine
10
-32.375500000000002
20
-21.324749999999995
30
0
11
-32.375500000000002
21
-34.324750000000002
31
0
0
ARC
5
1FF
100
AcDbEntity
8
CUTOUTS
100
AcDbCircle
10
-32.875500000000017
20
-21.324749999999995
30
0
40
0.50000000000000711
210
-4.3790577010150533e-47
220
-7.1536014699697014e-94
230
1
100
AcDbArc
50
0
51
90
0
LINE
5
200
100
AcDbEntity
8
CUTOUTS
100
AcDbLine
10
-38.625500000000024
20
-20.824749999999987
30
0
11
-32.875500000000017
21
-20.824749999999987
31
0
0
ARC
5
201
100
AcDbEntity
8
CUTOUTS
100
AcDbCircle
10
-38.625500000000024
20
-21.324749999999995
30
0
40
0.50000000000000711
210
-4.3790577010150533e-47
220
-8.044198495244479e-63
230
1
100
AcDbArc
50
90
51
180
0
LINE
5
202
100
AcDbEntity
8
CUTOUTS
100
AcDbLine
10
-39.125500000000017
20
-34.324750000000002
30
-5.5511151231257827e-16
11
-39.125500000000031
21
-21.324749999999995
31
-5.5511151231257827e-16
0
ARC
5
203
100
AcDbEntity
8
CUTOUTS
100
AcDbCircle
10
-38.625500000000024
20
-34.324750000000002
30
-5.5511151231257827e-16
40
0.49999999999998934
210
0
220
-7.1536014699697014e-94
230
1
100
AcDbArc
50
180
51
270
0
LINE
5
204
100
AcDbEntity
8
CUTOUTS
100
AcDbLine
10
-32.875500000000017
20
-34.824750000000009
30
-5.5511151231257827e-16
11
-38.625500000000024
21
-34.824749999999995
31
-5.5511151231257827e-16
0
LINE
5
205
100
AcDbEntity
8
CUTOUTS
100
AcDbLine
10
-17.312500000000011
20
-35.824749999999987
30
0
11
-30.312500000000018
21
-35.824750000000009
31
0
0
ARC
5
206
100
AcDbEntity
8
CUTOUTS
100
AcDbCircle
10
-30.312500000000036
20
-35.324749999999995
30
0
40
0.50000000000000711
210
-4.3790577010150533e-47
220
-7.1536014699697014e-94
230
1
100
AcDbArc
50
180
51
270.00000000000205
0
LINE
5
207
100
AcDbEntity
8
CUTOUTS
100
AcDbLine
10
-30.812500000000043
20
-35.324749999999995
30
0
11
-30.812500000000043
21
-22.324749999999991
31
0
0
ARC
5
208
100
AcDbEntity
8
CUTOUTS
100
AcDbCircle
10
-30.312500000000036
20
-22.324749999999991
30
0
40
0.50000000000000711
210
-4.3790577010150533e-47
220
-8.044198495244479e-63
230
1
100
AcDbArc
50
90
51
180
0
LINE
5
209
100
AcDbEntity
8
CUTOUTS
100
AcDbLine
10
-30.312500000000036
20
-21.824749999999984
30
0
11
-17.312500000000028
21
-21.824749999999984
31
0
0
ARC
5
20A
100
AcDbEntity
8
CUTOUTS
100
AcDbCircle
10
-17.312500000000011
20
-22.324749999999991
30
0
40
0.50000000000000711
210
-4.3790577010150533e-47
220
-7.1536014699697014e-94
230
1
100
AcDbArc
50
0
51
90.000000000002032
0
LINE
5
20B
100
AcDbEntity
8
CUTOUTS
100
AcDbLine
10
-16.812500000000004
20
-22.324749999999991
30
0
11
-16.812500000000021
21
-35.324749999999995
31
0
0
ARC
5
20C
100
AcDbEntity
8
CUTOUTS
100
AcDbCircle
10
-17.312500000000011
20
-35.324749999999995
30
0
40
0.49999999999998934
210
-4.3790577010150533e-47
220
-8.044198495244478e-63
230
1
100
AcDbArc
50
-90
51
0
0
ARC
5
20D
100
AcDbEntity
8
CUTOUTS
100
AcDbCircle
10
-8.9995000000000047
20
-34.324750000000002
30
-5.5511151231257827e-16
40
0.50000000000000711
210
-4.3790577010150533e-47
220
0
230
1
100
AcDbArc
50
-90
51
0
0
LINE
5
20E
100
AcDbEntity
8
CUTOUTS
100
AcDbLine
10
-8.4994999999999976
20
-21.324749999999995
30
0
11
-8.4994999999999976
21
-34.324750000000002
31
0
0
ARC
5
20F
100
AcDbEntity
8
CUTOUTS
100
AcDbCircle
10
-8.9995000000000047
20
-21.324749999999995
30
0
40
0.50000000000000711
210
-4.3790577010150533e-47
220
-7.1536014699697014e-94
230
1
100
AcDbArc
50
0
51
90
0
LINE
5
210
100
AcDbEntity
8
CUTOUTS
100
AcDbLine
10
-14.749499999999998
20
-20.824749999999987
30
0
11
-8.9995000000000047
21
-20.824749999999987
31
0
0
ARC
5
211
100
AcDbEntity
8
CUTOUTS
100
AcDbCircle
10
-14.749499999999998
20
-21.324749999999995
30
0
40
0.50000000000000711
210
-4.3790577010150533e-47
220
-8.044198495244479e-63
230
1
100
AcDbArc
50
90
51
180
0
LINE
5
212
100
AcDbEntity
8
CUTOUTS
100
AcDbLine
10
-15.249500000000005
20
-34.324750000000002
30
-5.5511151231257827e-16
11
-15.249500000000005
21
-21.324749999999995
31
-5.5511151231257827e-16
0
ARC
5
213
100
AcDbEntity
8
CUTOUTS
100
AcDbCircle
10
-14.749499999999998
20
-34.324750000000002
30
-5.5511151231257827e-16
40
0.50000000000000711
210
0
220
-7.1536014699697014e-94
230
1
100
AcDbArc
50
180
51
270
0
LINE
5
214
100
AcDbEntity
8
CUTOUTS
100
AcDbLine
10
-8.9995000000000047
20
-34.824750000000009
30
-5.5511151231257827e-16
11
-14.749499999999998
21
-34.824750000000009
31
-5.5511151231257827e-16
0
ARC
5
215
100
AcDbEntity
8
CUTOUTS
100
AcDbCircle
10
23.168749999999996
20
-3.2747499999999974
30
0
40
0.50000000000000711
210
-4.3790577010150533e-47
220
-7.1536014699697014e-94
230
1
100
AcDbArc
50
0
51
89.999999999995936
0
LINE
5
216
100
AcDbEntity
8
CUTOUTS
100
AcDbLine
10
10.168750000000024
20
-2.7747500000000258
30
0
11
23.168750000000031
21
-2.774750000000008
31
0
0
ARC
5
217
100
AcDbEntity
8
CUTOUTS
100
AcDbCircle
10
10.168750000000024
20
-3.2747500000000329
30
0
40
0.50000000000000711
210
-4.3790577010150533e-47
220
-8.044198495244479e-63
230
1
100
AcDbArc
50
90
51
180
0
LINE
5
218
100
AcDbEntity
8
CUTOUTS
100
AcDbLine
10
9.6687500000000526
20
-16.27475000000004
30
0
11
9.6687500000000526
21
-3.2747500000000329
31
0
0
ARC
5
219
100
AcDbEntity
8
CUTOUTS
100
AcDbCircle
10
10.16875000000006
20
-16.27475000000004
30
0
40
0.50000000000000711
210
-4.3790577010150533e-47
220
-7.1536014699697014e-94
230
1
100
AcDbArc
50
180
51
269.99999999999795
0
LINE
5
21A
100
AcDbEntity
8
CUTOUTS
100
AcDbLine
10
23.168749999999996
20
-16.774749999999994
30
0
11
10.168750000000006
21
-16.774750000000029
31
0
0
ARC
5
21B
100
AcDbEntity
8
CUTOUTS
100
AcDbCircle
10
23.168749999999996
20
-16.274750000000004
30
0
40
0.49999999999998934
210
-4.3790577010150533e-47
220
-8.044198495244478e-63
230
1
100
AcDbArc
50
-90
51
0
0
LINE
5
21C
100
AcDbEntity
8
CUTOUTS
100
AcDbLine
10
23.668750000000003
20
-3.2747499999999974
30
0
11
23.668750000000003
21
-16.274750000000004
31
0
0
LINE
5
21D
100
AcDbEntity
8
CUTOUTS
100
AcDbLine
10
28.718749999999993
20
-16.274750000000004
30
0
11
28.718749999999993
21
-3.2747499999999974
31
0
0
ARC
5
21E
100
AcDbEntity
8
CUTOUTS
100
AcDbCircle
10
29.21875
20
-3.2747499999999974
30
0
40
0.50000000000000711
210
-4.3790577010150533e-47
220
-8.044198495244479e-63
230
1
100
AcDbArc
50
90
51
180
0
LINE
5
21F
100
AcDbEntity
8
CUTOUTS
100
AcDbLine
10
29.21875
20
-2.7747499999999903
30
0
11
42.218749999999972
21
-2.7747499999999903
31
0
0
ARC
5
220
100
AcDbEntity
8
CUTOUTS
100
AcDbCircle
10
42.218749999999972
20
-3.2747499999999974
30
0
40
0.50000000000000711
210
-4.3790577010150533e-47
220
-7.1536014699697014e-94
230
1
100
AcDbArc
50
0
51
90
0
LINE
5
221
100
AcDbEntity
8
CUTOUTS
100
AcDbLine
10
42.718749999999979
20
-3.2747499999999974
30
0
11
42.718749999999979
21
-16.274750000000004
31
0
0
ARC
5
222
100
AcDbEntity
8
CUTOUTS
100
AcDbCircle
10
42.218749999999972
20
-16.274750000000004
30
0
40
0.50000000000000711
210
-4.3790577010150533e-47
220
-8.044198495244479e-63
230
1
100
AcDbArc
50
-90
51
0
0
LINE
5
223
100
AcDbEntity
8
CUTOUTS
100
AcDbLine
10
42.218749999999972
20
-16.774750000000012
30
0
11
29.21875
21
-16.774750000000012
31
0
0
ARC
5
224
100
AcDbEntity
8
CUTOUTS
100
AcDbCircle
10
29.21875
20
-16.274750000000004
30
0
40
0.50000000000000711
210
-4.3790577010150533e-47
220
-7.1536014699697014e-94
230
1
100
AcDbArc
50
180
51
270
0
LINE
5
225
100
AcDbEntity
8
CUTOUTS
100
AcDbLine
10
48.268750000000011
20
-2.7747499999999903
30
0
11
61.268750000000018
21
-2.7747499999999903
31
0
0
ARC
5
226
100
AcDbEntity
8
CUTOUTS
100
AcDbCircle
10
61.268750000000018
20
-3.2747499999999974
30
0
40
0.50000000000000711
210
-4.3790577010150533e-47
220
-7.1536014699697014e-94
230
1
100
AcDbArc
50
0
51
90
0
LINE
5
227
100
AcDbEntity
8
CUTOUTS
100
AcDbLine
10
61.768750000000026
20
-3.2747499999999974
30
0
11
61.768750000000026
21
-16.274750000000004
31
0
0
ARC
5
228
100
AcDbEntity
8
CUTOUTS
100
AcDbCircle
10
61.268750000000018
20
-16.274750000000004
30
0
40
0.49999999999998934
210
-4.3790577010150533e-47
220
-8.044198495244478e-63
230
1
100
AcDbArc
50
-90
51
0
0
LINE
5
229
100
AcDbEntity
8
CUTOUTS
100
AcDbLine
10
61.268750000000018
20
-16.774749999999994
30
0
11
48.268750000000011
21
-16.774750000000012
31
0
0
ARC
5
22A
100
AcDbEntity
8
CUTOUTS
100
AcDbCircle
10
48.268750000000011
20
-16.274750000000004
30
0
40
0.50000000000000711
210
-4.3790577010150533e-47
220
-7.1536014699697014e-94
230
1
100
AcDbArc
50
180
51
270
0
LINE
5
22B
100
AcDbEntity
8
CUTOUTS
100
AcDbLine
10
47.768750000000004
20
-16.274750000000004
30
0
11
47.768750000000004
21
-3.2747499999999974
31
0
0
ARC
5
22C
100
AcDbEntity
8
CUTOUTS
100
AcDbCircle
10
48.268750000000011
20
-3.2747499999999974
30
0
40
0.50000000000000711
210
-4.3790577010150533e-47
220
-8.044198495244479e-63
230
1
100
AcDbArc
50
90
51
180
0
LINE
5
22D
100
AcDbEntity
8
CUTOUTS
100
AcDbLine
10
80.818749999999994
20
-3.2747499999999974
30
0
11
80.818749999999994
21
-16.274750000000004
31
0
0
ARC
5
22E
100
AcDbEntity
8
CUTOUTS
100
AcDbCircle
10
80.318749999999994
20
-16.274750000000004
30
0
40
0.50000000000000711
210
-4.3790577010150533e-47
220
-8.044198495244479e-63
230
1
100
AcDbArc
50
-90
51
0
0
LINE
5
22F
100
AcDbEntity
8
CUTOUTS
100
AcDbLine
10
80.318749999999994
20
-16.774750000000012
30
0
11
67.318749999999994
21
-16.774750000000012
31
0
0
ARC
5
230
100
AcDbEntity
8
CUTOUTS
100
AcDbCircle
10
67.318749999999994
20
-16.274750000000004
30
0
40
0.50000000000000711
210
-4.3790577010150533e-47
220
-7.1536014699697014e-94
230
1
100
AcDbArc
50
180
51
270
0
LINE
5
231
100
AcDbEntity
8
CUTOUTS
100
AcDbLine
10
66.81874999999998
20
-16.274750000000004
30
0
11
66.81874999999998
21
-3.2747499999999974
31
0
0
ARC
5
232
100
AcDbEntity
8
CUTOUTS
100
AcDbCircle
10
67.318749999999994
20
-3.2747499999999974
30
0
40
0.50000000000000711
210
-4.3790577010150533e-47
220
-8.044198495244479e-63
230
1
100
AcDbArc
50
90
51
180
0
LINE
5
233
100
AcDbEntity
8
CUTOUTS
100
AcDbLine
10
67.318749999999994
20
-2.7747499999999903
30
0
11
80.318749999999994
21
-2.7747499999999903
31
0
0
ARC
5
234
100
AcDbEntity
8
CUTOUTS
100
AcDbCircle
10
80.318749999999994
20
-3.2747499999999974
30
0
40
0.50000000000000711
210
-4.3790577010150533e-47
220
-7.1536014699697014e-94
230
1
100
AcDbArc
50
0
51
90
0
LINE
5
235
100
AcDbEntity
8
CUTOUTS
100
AcDbLine
10
86.368750000000006
20
-2.7747499999999903
30
0
11
99.368750000000006
21
-2.7747499999999903
31
0
0
ARC
5
236
100
AcDbEntity
8
CUTOUTS
100
AcDbCircle
10
99.368750000000034
20
-3.2747499999999974
30
0
40
0.50000000000000711
210
-4.3790577010150533e-47
220
-7.1536014699697014e-94
230
1
100
AcDbArc
50
0
51
90.000000000003254
0
LINE
5
237
100
AcDbEntity
8
CUTOUTS
100
AcDbLine
10
99.868750000000048
20
-3.2747499999999974
30
0
11
99.868750000000048
21
-16.274750000000004
31
0
0
ARC
5
238
100
AcDbEntity
8
CUTOUTS
100
AcDbCircle
10
99.368750000000034
20
-16.274750000000004
30
0
40
0.49999999999998934
210
-4.3790577010150533e-47
220
-8.044198495244478e-63
230
1
100
AcDbArc
50
-90
51
0
0
LINE
5
239
100
AcDbEntity
8
CUTOUTS
100
AcDbLine
10
99.368750000000034
20
-16.774749999999994
30
0
11
86.368750000000034
21
-16.774750000000012
31
0
0
ARC
5
23A
100
AcDbEntity
8
CUTOUTS
100
AcDbCircle
10
86.368750000000006
20
-16.274750000000004
30
0
40
0.50000000000000711
210
-4.3790577010150533e-47
220
-7.1536014699697014e-94
230
1
100
AcDbArc
50
180
51
270.00000000000324
0
LINE
5
23B
100
AcDbEntity
8
CUTOUTS
100
AcDbLine
10
85.868749999999991
20
-16.274750000000004
30
0
11
85.868749999999991
21
-3.2747499999999974
31
0
0
ARC
5
23C
100
AcDbEntity
8
CUTOUTS
100
AcDbCircle
10
86.368750000000006
20
-3.2747499999999974
30
0
40
0.50000000000000711
210
-4.3790577010150533e-47
220
-8.044198495244479e-63
230
1
100
AcDbArc
50
90
51
180
0
LINE
5
23D
100
AcDbEntity
8
CUTOUTS
100
AcDbLine
10
104.91875000000005
20
-16.274750000000004
30
0
11
104.91875000000005
21
-3.2747499999999974
31
0
0
ARC
5
23E
100
AcDbEntity
8
CUTOUTS
100
AcDbCircle
10
105.41875000000005
20
-3.2747499999999974
30
0
40
0.50000000000000711
210
-4.3790577010150533e-47
220
-8.044198495244479e-63
230
1
100
AcDbArc
50
90
51
180
0
LINE
5
23F
100
AcDbEntity
8
CUTOUTS
100
AcDbLine
10
105.41875000000005
20
-2.7747499999999903
30
0
11
118.41875000000005
21
-2.7747499999999903
31
0
0
ARC
5
240
100
AcDbEntity
8
CUTOUTS
100
AcDbCircle
10
118.41875000000005
20
-3.2747499999999974
30
0
40
0.50000000000000711
210
-4.3790577010150533e-47
220
-7.1536014699697014e-94
230
1
100
AcDbArc
50
0
51
90
0
LINE
5
241
100
AcDbEntity
8
CUTOUTS
100
AcDbLine
10
118.91875000000006
20
-3.2747499999999974
30
0
11
118.91875000000006
21
-16.274750000000004
31
0
0
ARC
5
242
100
AcDbEntity
8
CUTOUTS
100
AcDbCircle
10
118.41875000000005
20
-16.274750000000004
30
0
40
0.50000000000000711
210
-4.3790577010150533e-47
220
-8.044198495244479e-63
230
1
100
AcDbArc
50
-90
51
0
0
LINE
5
243
100
AcDbEntity
8
CUTOUTS
100
AcDbLine
10
118.41875000000005
20
-16.774750000000012
30
0
11
105.41875000000005
21
-16.774750000000012
31
0
0
ARC
5
244
100
AcDbEntity
8
CUTOUTS
100
AcDbCircle
10
105.41875000000005
20
-16.274750000000004
30
0
40
0.50000000000000711
210
-4.3790577010150533e-47
220
-7.1536014699697014e-94
230
1
100
AcDbArc
50
180
51
270
0
ARC
5
245
100
AcDbEntity
8
CUTOUTS
100
AcDbCircle
10
1.855750000000036
20
-34.324750000000037
30
-5.5511151231257827e-16
40
0.50000000000000711
210
0
220
-7.1536014699697014e-94
230
1
100
AcDbArc
50
180
51
270.00000000000205
0
LINE
5
246
100
AcDbEntity
8
CUTOUTS
100
AcDbLine
10
7.6057500000000644
20
-34.824750000000044
30
-5.5511151231257827e-16
11
1.8557500000000537
21
-34.824750000000044
31
-5.5511151231257827e-16
0
ARC
5
247
100
AcDbEntity
8
CUTOUTS
100
AcDbCircle
10
7.6057500000000644
20
-34.324750000000037
30
-5.5511151231257827e-16
40
0.50000000000000711
210
-4.3790577010150533e-47
220
0
230
1
100
AcDbArc
50
-90
51
0
0
LINE
5
248
100
AcDbEntity
8
CUTOUTS
100
AcDbLine
10
8.1057500000000715
20
-21.32475000000003
30
0
11
8.1057500000000715
21
-34.324750000000037
31
0
0
ARC
5
249
100
AcDbEntity
8
CUTOUTS
100
AcDbCircle
10
7.6057500000000644
20
-21.32475000000003
30
0
40
0.50000000000000711
210
-4.3790577010150533e-47
220
-7.1536014699697014e-94
230
1
100
AcDbArc
50
0
51
90.000000000002032
0
LINE
5
24A
100
AcDbEntity
8
CUTOUTS
100
AcDbLine
10
1.855750000000036
20
-20.824750000000023
30
0
11
7.6057500000000466
21
-20.824750000000023
31
0
0
ARC
5
24B
100
AcDbEntity
8
CUTOUTS
100
AcDbCircle
10
1.855750000000036
20
-21.32475000000003
30
0
40
0.50000000000000711
210
-4.3790577010150533e-47
220
-8.044198495244479e-63
230
1
100
AcDbArc
50
90
51
180
0
LINE
5
24C
100
AcDbEntity
8
CUTOUTS
100
AcDbLine
10
1.3557500000000289
20
-34.324750000000037
30
-5.5511151231257827e-16
11
1.3557500000000289
21
-21.32475000000003
31
-5.5511151231257827e-16
0
ARC
5
24D
100
AcDbEntity
8
CUTOUTS
100
AcDbCircle
10
10.16875000000006
20
-22.324750000000027
30
0
40
0.50000000000000711
210
-4.3790577010150533e-47
220
-8.044198495244479e-63
230
1
100
AcDbArc
50
90
51
180
0
LINE
5
24E
100
AcDbEntity
8
CUTOUTS
100
AcDbLine
10
9.6687500000000526
20
-35.324750000000037
30
0
11
9.6687500000000526
21
-22.324750000000027
31
0
0
ARC
5
24F
100
AcDbEntity
8
CUTOUTS
100
AcDbCircle
10
10.16875000000006
20
-35.324750000000037
30
0
40
0.50000000000000711
210
-4.3790577010150533e-47
220
-7.1536014699697014e-94
230
1
100
AcDbArc
50
180
51
269.99999999999795
0
LINE
5
250
100
AcDbEntity
8
CUTOUTS
100
AcDbLine
10
23.168749999999996
20
-35.824750000000009
30
0
11
10.168750000000006
21
-35.824750000000023
31
0
0
ARC
5
251
100
AcDbEntity
8
CUTOUTS
100
AcDbCircle
10
23.168749999999996
20
-35.324749999999995
30
0
40
0.50000000000000711
210
-4.3790577010150533e-47
220
-8.044198495244479e-63
230
1
100
AcDbArc
50
-90
51
0
0
LINE
5
252
100
AcDbEntity
8
CUTOUTS
100
AcDbLine
10
23.668750000000003
20
-22.324749999999991
30
0
11
23.668750000000003
21
-35.324749999999995
31
0
0
ARC
5
253
100
AcDbEntity
8
CUTOUTS
100
AcDbCircle
10
23.168749999999996
20
-22.324749999999991
30
0
40
0.50000000000000711
210
-4.3790577010150533e-47
220
-7.1536014699697014e-94
230
1
100
AcDbArc
50
0
51
89.999999999995936
0
LINE
5
254
100
AcDbEntity
8
CUTOUTS
100
AcDbLine
10
10.16875000000006
20
-21.824750000000019
30
0
11
23.168750000000067
21
-21.824750000000002
31
0
0
ARC
5
255
100
AcDbEntity
8
CUTOUTS
100
AcDbCircle
10
31.481749999999984
20
-21.324749999999995
30
0
40
0.50000000000000711
210
-4.3790577010150533e-47
220
-7.1536014699697014e-94
230
1
100
AcDbArc
50
0
51
90
0
LINE
5
256
100
AcDbEntity
8
CUTOUTS
100
AcDbLine
10
25.731749999999991
20
-20.824749999999987
30
0
11
31.481749999999984
21
-20.824749999999987
31
0
0
ARC
5
257
100
AcDbEntity
8
CUTOUTS
100
AcDbCircle
10
25.731749999999991
20
-21.324749999999995
30
0
40
0.50000000000000711
210
-4.3790577010150533e-47
220
-8.044198495244479e-63
230
1
100
AcDbArc
50
90
51
180
0
LINE
5
258
100
AcDbEntity
8
CUTOUTS
100
AcDbLine
10
25.231749999999984
20
-34.324750000000002
30
-5.5511151231257827e-16
11
25.231749999999984
21
-21.324749999999995
31
-5.5511151231257827e-16
0
ARC
5
259
100
AcDbEntity
8
CUTOUTS
100
AcDbCircle
10
25.731749999999991
20
-34.324750000000002
30
-5.5511151231257827e-16
40
0.50000000000000711
210
0
220
-7.1536014699697014e-94
230
1
100
AcDbArc
50
180
51
270
0
LINE
5
25A
100
AcDbEntity
8
CUTOUTS
100
AcDbLine
10
31.481749999999984
20
-34.824750000000009
30
-5.5511151231257827e-16
11
25.731749999999991
21
-34.824750000000009
31
-5.5511151231257827e-16
0
ARC
5
25B
100
AcDbEntity
8
CUTOUTS
100
AcDbCircle
10
31.481749999999984
20
-34.324750000000002
30
-5.5511151231257827e-16
40
0.50000000000000711
210
-4.3790577010150533e-47
220
0
230
1
100
AcDbArc
50
-90
51
0
0
LINE
5
25C
100
AcDbEntity
8
CUTOUTS
100
AcDbLine
10
31.981749999999991
20
-21.324749999999995
30
0
11
31.981749999999991
21
-34.324750000000002
31
0
0
LINE
5
25D
100
AcDbEntity
8
CUTOUTS
100
AcDbLine
10
41.124999999999972
20
-21.824749999999984
30
0
11
56.50624999999998
21
-21.824749999999984
31
0
0
ARC
5
25E
100
AcDbEntity
8
CUTOUTS
100
AcDbCircle
10
56.50624999999998
20
-22.324749999999991
30
0
40
0.50000000000000711
210
-4.3790577010150533e-47
220
-7.1536014699697014e-94
230
1
100
AcDbArc
50
0
51
90
0
LINE
5
25F
100
AcDbEntity
8
CUTOUTS
100
AcDbLine
10
57.006249999999987
20
-22.324749999999991
30
0
11
57.006249999999952
21
-35.324749999999995
31
0
0
ARC
5
260
100
AcDbEntity
8
CUTOUTS
100
AcDbCircle
10
56.50624999999998
20
-35.324749999999995
30
0
40
0.49999999999998934
210
-4.3790577010150533e-47
220
-8.044198495244478e-63
230
1
100
AcDbArc
50
-90
51
0
0
LINE
5
261
100
AcDbEntity
8
CUTOUTS
100
AcDbLine
10
56.50624999999998
20
-35.824749999999987
30
0
11
41.124999999999972
21
-35.824750000000009
31
0
0
ARC
5
262
100
AcDbEntity
8
CUTOUTS
100
AcDbCircle
10
41.124999999999972
20
-35.324749999999995
30
0
40
0.50000000000000711
210
-4.3790577010150533e-47
220
-7.1536014699697014e-94
230
1
100
AcDbArc
50
180
51
270
0
LINE
5
263
100
AcDbEntity
8
CUTOUTS
100
AcDbLine
10
40.624999999999964
20
-35.324749999999995
30
0
11
40.624999999999964
21
-22.324749999999991
31
0
0
ARC
5
264
100
AcDbEntity
8
CUTOUTS
100
AcDbCircle
10
41.124999999999972
20
-22.324749999999991
30
0
40
0.50000000000000711
210
-4.3790577010150533e-47
220
-8.044198495244479e-63
230
1
100
AcDbArc
50
90
51
180
0
ARC
5
265
100
AcDbEntity
8
CUTOUTS
100
AcDbCircle
10
67.318749999999994
20
-35.324749999999995
30
0
40
0.50000000000000711
210
-4.3790577010150533e-47
220
-7.1536014699697014e-94
230
1
100
AcDbArc
50
180
51
270.00000000000324
0
LINE
5
266
100
AcDbEntity
8
CUTOUTS
100
AcDbLine
10
118.41875000000005
20
-35.824750000000009
30
0
11
67.318750000000023
21
-35.824750000000009
31
0
0
ARC
5
267
100
AcDbEntity
8
CUTOUTS
100
AcDbCircle
10
118.41875000000005
20
-35.324749999999995
30
0
40
0.50000000000000711
210
-4.3790577010150533e-47
220
-8.044198495244479e-63
230
1
100
AcDbArc
50
-90
51
0
0
LINE
5
268
100
AcDbEntity
8
CUTOUTS
100
AcDbLine
10
118.91875000000006
20
-22.324749999999991
30
0
11
118.91875000000006
21
-35.324749999999995
31
0
0
ARC
5
269
100
AcDbEntity
8
CUTOUTS
100
AcDbCircle
10
118.41875000000005
20
-22.324749999999991
30
0
40
0.50000000000000711
210
-4.3790577010150533e-47
220
-7.1536014699697014e-94
230
1
100
AcDbArc
50
0
51
90.000000000003254
0
LINE
5
26A
100
AcDbEntity
8
CUTOUTS
100
AcDbLine
10
67.318749999999994
20
-21.824749999999984
30
0
11
118.41875000000002
21
-21.824749999999984
31
0
0
ARC
5
26B
100
AcDbEntity
8
CUTOUTS
100
AcDbCircle
10
67.318749999999994
20
-22.324749999999991
30
0
40
0.50000000000000711
210
-4.3790577010150533e-47
220
-8.044198495244479e-63
230
1
100
AcDbArc
50
90
51
180
0
LINE
5
26C
100
AcDbEntity
8
CUTOUTS
100
AcDbLine
10
66.81874999999998
20
-35.324749999999995
30
0
11
66.81874999999998
21
-22.324749999999991
31
0
0
LINE
5
26D
100
AcDbEntity
8
PERIMETER
100
AcDbLine
10
121.44375000000004
20
-37.849749999999993
30
0
11
121.44375000000004
21
37.849749999999993
31
0
0
ARC
5
26E
100
AcDbEntity
8
PERIMETER
100
AcDbCircle
10
120.94375000000002
20
37.849749999999958
30
0
40
0.50000000000000711
210
-7.0064923216240854e-46
220
-4.9784122222888426e-59
230
1
100
AcDbArc
50
0
51
90
0
LINE
5
26F
100
AcDbEntity
8
PERIMETER
100
AcDbLine
10
120.94375000000002
20
38.349749999999965
30
0
11
-120.94375000000002
21
38.349749999999993
31
0
0
ARC
5
270
100
AcDbEntity
8
PERIMETER
100
AcDbCircle
10
-120.94375000000005
20
37.849749999999993
30
0
40
0.49999999999999822
210
0
220
-0
230
1
100
AcDbArc
50
89.999999999996746
51
180
0
LINE
5
271
100
AcDbEntity
8
PERIMETER
100
AcDbLine
10
-121.44375000000004
20
37.849749999999993
30
0
11
-121.44375000000004
21
-37.849749999999993
31
0
0
ARC
5
272
100
AcDbEntity
8
PERIMETER
100
AcDbCircle
10
-120.94375000000005
20
-37.849749999999993
30
0
40
0.49999999999998934
210
0
220
0
230
1
100
AcDbArc
50
180
51
269.99999999999835
0
LINE
5
273
100
AcDbEntity
8
PERIMETER
100
AcDbLine
10
-120.94375000000007
20
-38.349749999999986
30
0
11
120.94375000000002
21
-38.34975
31
0
0
ARC
5
274
100
AcDbEntity
8
PERIMETER
100
AcDbCircle
10
120.94375000000002
20
-37.849749999999993
30
0
40
0.50000000000000711
210
-4.3790577010150533e-47
220
-8.044198495244479e-63
230
1
100
AcDbArc
50
-90
51
0
0
ENDSEC
0
SECTION
2
OBJECTS
0
DICTIONARY
5
C
100
AcDbDictionary
3
ACAD_GROUP
350
D
3
ACAD_MLINESTYLE
350
17
0
DICTIONARY
5
D
100
AcDbDictionary
0
DICTIONARY
5
1A
330
C
100
AcDbDictionary
0
DICTIONARY
5
17
100
AcDbDictionary
0
ENDSEC
0
EOF
